<?xml version="1.0" encoding="utf-8"?>
<!-- Generator: Adobe Illustrator 15.0.0, SVG Export Plug-In . SVG Version: 6.00 Build 0)  -->
<!DOCTYPE svg PUBLIC "-//W3C//DTD SVG 1.1//EN" "http://www.w3.org/Graphics/SVG/1.1/DTD/svg11.dtd">
<svg version="1.1" id="Layer_1" xmlns="http://www.w3.org/2000/svg" xmlns:xlink="http://www.w3.org/1999/xlink" x="0px" y="0px"
	 width="1200.168px" height="470.004px" viewBox="0 0 1200.168 470.004" enable-background="new 0 0 1200.168 470.004"
	 xml:space="preserve">
<polygon fill="#F7F7F7" points="0,0 0,470.004 1200.168,470.004 1200.168,0 0,0 "/>
<polygon fill="#EE3124" points="341.038,271.789 412.972,199.855 412.972,220.864 341.038,292.798 341.038,271.789 "/>
<polygon fill="#898A8D" points="340.973,172.855 341.039,172.855 460.907,172.856 460.973,172.855 460.973,292.854 460.907,292.854 
	460.907,292.856 361.966,292.854 412.972,241.848 412.973,262.856 397.974,277.854 445.907,277.854 445.907,187.856 
	356.039,187.855 356.038,235.785 341.038,250.785 340.973,172.855 "/>
<path fill="#898A8D" d="M584.712,231.582c0-7.103-0.464-12.873-1.39-17.314c-0.926-4.439-2.606-8.298-5.038-11.581
	c-2.432-3.28-5.848-5.635-10.249-7.064c-4.401-1.428-9.999-2.143-16.792-2.143h-26.52v78.75h26.52c6.948,0,12.661-0.828,17.14-2.488
	c4.477-1.66,7.893-4.323,10.249-7.991c2.354-3.666,3.955-7.836,4.806-12.508C584.286,244.572,584.712,238.687,584.712,231.582
	L584.712,231.582z M569.723,230.806c0,4.174-0.078,7.442-0.232,9.804c-0.541,5.983-1.931,10.121-4.169,12.41
	c-2.626,2.808-6.833,4.209-12.623,4.209h-12.976v-48.749h12.976c3.859,0,6.928,0.387,9.207,1.163
	c2.276,0.775,3.995,2.199,5.153,4.265c1.158,2.069,1.891,4.36,2.2,6.87C569.567,223.291,569.723,226.634,569.723,230.806
	L569.723,230.806z"/>
<polygon fill="#898A8D" points="689.768,272.229 689.768,208.48 691.598,208.48 707.958,268.756 723.988,268.756 740.348,208.48 
	742.168,208.48 742.168,272.229 757.218,272.229 757.218,193.48 729.918,193.48 715.968,250.922 702.028,193.48 674.718,193.48 
	674.718,272.229 689.768,272.229 "/>
<path fill="#898A8D" d="M855.729,224.807c1.31-2.586,1.97-6.08,1.97-10.481c0-7.334-2.05-12.641-6.14-15.924
	c-4.091-3.28-10.23-4.921-18.41-4.921h-30.931v78.749h31.391c8.109,0,14.399-1.852,18.88-5.558c4.47-3.706,6.71-9.381,6.71-17.024
	c0-4.939-0.83-8.802-2.49-11.58c-1.66-2.779-4.22-4.902-7.7-6.371C852.178,229.691,854.408,227.394,855.729,224.807L855.729,224.807
	z M841.968,216.526c0,5.364-3.01,8.046-9.03,8.046h-15.72v-16.091h15.601C838.918,208.481,841.968,211.163,841.968,216.526
	L841.968,216.526z M843.468,248.853c0,3.191-0.829,5.387-2.489,6.582c-1.66,1.197-4.221,1.795-7.7,1.795h-16.061v-16.555h16.061
	C840.078,240.675,843.468,243.402,843.468,248.853L843.468,248.853z"/>
<path fill="#898A8D" d="M509.723,208.481V193.48h-15v15.001H509.723L509.723,208.481z M494.723,215.98v56.25h15v-56.25H494.723
	L494.723,215.98z"/>
<path fill="#898A8D" d="M659.718,231.582c0-7.103-0.46-12.873-1.39-17.314c-0.92-4.439-2.6-8.298-5.03-11.581
	c-2.43-3.28-5.85-5.635-10.25-7.064c-4.401-1.428-10.001-2.143-16.794-2.143h-26.52v78.75h26.52c6.948,0,12.661-0.828,17.145-2.488
	c4.47-1.66,7.89-4.323,10.239-7.991c2.36-3.666,3.96-7.836,4.811-12.508C659.298,244.572,659.718,238.687,659.718,231.582
	L659.718,231.582z M644.738,230.806c0,4.174-0.08,7.442-0.24,9.804c-0.54,5.983-1.93,10.121-4.17,12.41
	c-2.621,2.808-6.828,4.209-12.618,4.209h-12.976v-48.749h12.976c3.86,0,6.928,0.387,9.207,1.163
	c2.276,0.775,3.991,2.199,5.151,4.265c1.16,2.069,1.89,4.36,2.2,6.87C644.578,223.291,644.738,226.634,644.738,230.806
	L644.738,230.806z"/>
<path fill="#898A8D" d="M787.218,208.481V193.48h-15v15.001H787.218L787.218,208.481z M772.218,215.98v56.25h15v-56.25H772.218
	L772.218,215.98z"/>
</svg>
