<?xml version="1.0" encoding="utf-8"?>
<!-- Generator: Adobe Illustrator 15.0.0, SVG Export Plug-In . SVG Version: 6.00 Build 0)  -->
<!DOCTYPE svg PUBLIC "-//W3C//DTD SVG 1.1//EN" "http://www.w3.org/Graphics/SVG/1.1/DTD/svg11.dtd">
<svg version="1.1" id="Layer_1" xmlns="http://www.w3.org/2000/svg" xmlns:xlink="http://www.w3.org/1999/xlink" x="0px" y="0px"
	 width="89.49px" height="89.5px" viewBox="0 0 89.49 89.5" enable-background="new 0 0 89.49 89.5" xml:space="preserve">
<path fill="#FFFFFF" d="M44.74,89.5C20.07,89.5,0,69.42,0,44.75C0,20.069,20.07,0,44.74,0c24.68,0,44.75,20.069,44.75,44.75
	C89.49,69.42,69.42,89.5,44.74,89.5L44.74,89.5z M44.74,2.979C21.72,2.979,2.98,21.72,2.98,44.75S21.72,86.51,44.74,86.51
	c23.029,0,41.77-18.729,41.77-41.76S67.77,2.979,44.74,2.979L44.74,2.979z"/>
<polygon fill="#FFFFFF" points="45.73,21.39 41.79,25.33 57.39,40.96 23.359,40.96 23.359,46.56 57.39,46.56 41.76,62.16 
	45.73,66.13 68.109,43.76 45.73,21.39 "/>
</svg>
