<?xml version="1.0" encoding="utf-8"?>
<!-- Generator: Adobe Illustrator 15.0.0, SVG Export Plug-In . SVG Version: 6.00 Build 0)  -->
<!DOCTYPE svg PUBLIC "-//W3C//DTD SVG 1.1//EN" "http://www.w3.org/Graphics/SVG/1.1/DTD/svg11.dtd">
<svg version="1.1" id="Layer_1" xmlns="http://www.w3.org/2000/svg" xmlns:xlink="http://www.w3.org/1999/xlink" x="0px" y="0px"
	 width="45px" height="45px" viewBox="0 0 45 45" enable-background="new 0 0 45 45" xml:space="preserve">
<path fill="#EE3124" d="M1.5,22.5c0,11.579,9.422,21,21,21c11.579,0,21-9.421,21-21s-9.421-21-21-21C10.922,1.5,1.5,10.921,1.5,22.5
	 M45,22.5C45,34.905,34.906,45,22.5,45C10.095,45,0,34.905,0,22.5C0,10.094,10.095,0,22.5,0C34.906,0,45,10.094,45,22.5"/>
<polygon fill="#EE3124" points="10.754,22.003 12.736,23.985 20.598,16.139 20.598,33.253 23.41,33.253 23.41,16.139 31.257,23.999 
	33.254,22.003 22.004,10.753 "/>
</svg>
