<?xml version="1.0" encoding="utf-8"?>
<!-- Generator: Adobe Illustrator 15.0.0, SVG Export Plug-In . SVG Version: 6.00 Build 0)  -->
<!DOCTYPE svg PUBLIC "-//W3C//DTD SVG 1.1//EN" "http://www.w3.org/Graphics/SVG/1.1/DTD/svg11.dtd">
<svg version="1.1" id="Layer_1" xmlns="http://www.w3.org/2000/svg" xmlns:xlink="http://www.w3.org/1999/xlink" x="0px" y="0px"
	 width="45px" height="45px" viewBox="0 0 45 45" enable-background="new 0 0 45 45" xml:space="preserve">
<path fill="#EE3124" d="M22.5,0C34.906,0,45,10.09,45,22.5C45,34.909,34.906,45,22.5,45C10.094,45,0,34.909,0,22.5
	C0,10.09,10.094,0,22.5,0L22.5,0z M22.5,43.5c11.579,0,21-9.421,21-21c0-11.58-9.421-21-21-21s-21,9.42-21,21
	C1.5,34.079,10.921,43.5,22.5,43.5L22.5,43.5z"/>
<polygon fill="#EE3124" points="22.003,34.249 23.986,32.26 16.139,24.399 33.253,24.399 33.253,21.59 16.139,21.59 24,13.739 
	22.003,11.749 10.753,22.999 22.003,34.249 "/>
</svg>
