<?xml version="1.0" encoding="utf-8"?>
<!-- Generator: Adobe Illustrator 15.0.0, SVG Export Plug-In . SVG Version: 6.00 Build 0)  -->
<!DOCTYPE svg PUBLIC "-//W3C//DTD SVG 1.1//EN" "http://www.w3.org/Graphics/SVG/1.1/DTD/svg11.dtd">
<svg version="1.1" id="Layer_1" xmlns="http://www.w3.org/2000/svg" xmlns:xlink="http://www.w3.org/1999/xlink" x="0px" y="0px"
	 width="45px" height="45px" viewBox="0 0 45 45" enable-background="new 0 0 45 45" xml:space="preserve">
<path fill="#EE3124" d="M22.5,45C10.1,45,0,34.909,0,22.5C0,10.09,10.1,0,22.5,0C34.91,0,45,10.09,45,22.5
	C45,34.909,34.91,45,22.5,45L22.5,45z M22.5,1.5c-11.57,0-21,9.42-21,21c0,11.579,9.43,21,21,21c11.58,0,21-9.421,21-21
	C43.5,10.92,34.08,1.5,22.5,1.5L22.5,1.5z"/>
<polygon fill="#EE3124" points="23,10.75 21.021,12.739 28.87,20.6 11.75,20.6 11.75,23.409 28.87,23.409 21,31.26 23,33.25 
	34.25,22 23,10.75 "/>
</svg>
