<?xml version="1.0" encoding="utf-8"?>
<!-- Generator: Adobe Illustrator 15.0.0, SVG Export Plug-In . SVG Version: 6.00 Build 0)  -->
<!DOCTYPE svg PUBLIC "-//W3C//DTD SVG 1.1//EN" "http://www.w3.org/Graphics/SVG/1.1/DTD/svg11.dtd">
<svg version="1.1" id="Layer_1" xmlns="http://www.w3.org/2000/svg" xmlns:xlink="http://www.w3.org/1999/xlink" x="0px" y="0px"
	 width="45px" height="45px" viewBox="0 0 45 45" enable-background="new 0 0 45 45" xml:space="preserve">
<path fill="#000" d="M43.5,22.5c0-11.579-9.421-21-21-21s-21,9.421-21,21s9.421,21,21,21S43.5,34.079,43.5,22.5 M0,22.5
	C0,10.095,10.094,0,22.5,0S45,10.095,45,22.5C45,34.906,34.906,45,22.5,45S0,34.906,0,22.5"/>
<polygon fill="#000" points="34.246,22.997 32.264,21.015 24.402,28.861 24.402,11.747 21.591,11.747 21.591,28.861 13.744,21 
	11.747,22.997 22.997,34.247 "/>
</svg>
