<?xml version="1.0" encoding="utf-8"?>
<!-- Generator: Adobe Illustrator 15.0.0, SVG Export Plug-In . SVG Version: 6.00 Build 0)  -->
<!DOCTYPE svg PUBLIC "-//W3C//DTD SVG 1.1//EN" "http://www.w3.org/Graphics/SVG/1.1/DTD/svg11.dtd">
<svg version="1.1" id="Layer_1" xmlns="http://www.w3.org/2000/svg" xmlns:xlink="http://www.w3.org/1999/xlink" x="0px" y="0px"
	 width="45px" height="45px" viewBox="0 0 45 45" enable-background="new 0 0 45 45" xml:space="preserve">
<path fill="#FFFFFF" d="M0,22.5C0,10.094,10.094,0,22.5,0S45,10.094,45,22.5C45,34.907,34.906,45,22.5,45S0,34.907,0,22.5L0,22.5z
	 M43.5,22.5c0-11.579-9.421-21-21-21s-21,9.421-21,21s9.421,21,21,21S43.5,34.079,43.5,22.5L43.5,22.5z"/>
<polygon fill="#FFFFFF" points="34.247,22.997 32.264,21.015 24.403,28.862 24.403,11.747 21.591,11.747 21.591,28.862 
	13.744,21.001 11.747,22.997 22.997,34.247 34.247,22.997 "/>
</svg>
