<?xml version="1.0" encoding="utf-8"?>
<!-- Generator: Adobe Illustrator 15.0.0, SVG Export Plug-In . SVG Version: 6.00 Build 0)  -->
<!DOCTYPE svg PUBLIC "-//W3C//DTD SVG 1.1//EN" "http://www.w3.org/Graphics/SVG/1.1/DTD/svg11.dtd">
<svg version="1.1" id="Layer_1" xmlns="http://www.w3.org/2000/svg" xmlns:xlink="http://www.w3.org/1999/xlink" x="0px" y="0px"
	 width="570px" height="325.5px" viewBox="0 0 570 325.5" enable-background="new 0 0 570 325.5" xml:space="preserve">
<polygon fill="#F7F7F7" points="0,0 0,325.5 570,325.5 570,0 0,0 "/>
<polygon fill="#EE3124" points="117.043,187.999 163.682,141.4 163.682,154.999 117.043,201.6 117.043,187.999 "/>
<polygon fill="#898A8D" points="117,123.899 117.043,123.899 194.761,123.899 194.804,123.899 194.804,201.699 194.761,201.699 
	194.761,201.699 130.611,201.699 163.682,168.6 163.682,182.199 153.958,192 185.036,192 185.036,133.6 126.768,133.6 
	126.768,164.699 117.043,174.4 117,123.899 "/>
<path fill="#898A8D" d="M275.032,162c0-4.602-0.301-8.4-0.901-11.301c-0.601-2.8-1.69-5.301-3.266-7.5
	c-1.577-2.1-3.792-3.6-6.646-4.6c-2.853-0.9-6.483-1.301-10.887-1.301h-17.195v51h17.195c4.505,0,8.209-0.5,11.113-1.6
	c2.902-1.1,5.117-2.8,6.645-5.199c1.526-2.4,2.564-5.101,3.116-8.101C274.756,170.399,275.032,166.6,275.032,162L275.032,162z
	 M265.314,161.498c0,2.701-0.051,4.801-0.151,6.301c-0.351,3.9-1.252,6.602-2.703,8.102c-1.702,1.799-4.43,2.699-8.184,2.699h-8.413
	V147h8.413c2.502,0,4.492,0.199,5.969,0.699c1.476,0.5,2.591,1.5,3.342,2.8c0.75,1.3,1.225,2.8,1.426,4.5
	C265.213,156.6,265.314,158.699,265.314,161.498L265.314,161.498z"/>
<polygon fill="#898A8D" points="343.15,188.299 343.15,147 344.333,147 354.938,186.1 365.334,186.1 375.94,147 377.124,147 
	377.124,188.299 386.882,188.299 386.882,137.299 369.177,137.299 360.137,174.499 351.096,137.299 333.392,137.299 
	333.392,188.299 343.15,188.299 "/>
<path fill="#898A8D" d="M450.749,157.6c0.85-1.701,1.275-4,1.275-6.801c0-4.8-1.327-8.199-3.979-10.399
	c-2.654-2.101-6.635-3.101-11.939-3.101h-20.048v51h20.348c5.257,0,9.337-1.199,12.239-3.6c2.903-2.4,4.355-6.1,4.355-11
	c0-3.201-0.539-5.699-1.614-7.5c-1.077-1.8-2.741-3.201-4.993-4.199C448.445,160.699,449.896,159.199,450.749,157.6L450.749,157.6z
	 M441.827,152.199c0,3.5-1.951,5.199-5.856,5.199h-10.187V147h10.111C439.849,147,441.827,148.699,441.827,152.199L441.827,152.199z
	 M442.803,173.199c0,2-0.538,3.4-1.614,4.201c-1.077,0.799-2.741,1.199-4.994,1.199h-10.411v-10.701h10.411
	C440.6,167.898,442.803,169.6,442.803,173.199L442.803,173.199z"/>
<path fill="#898A8D" d="M226.412,147v-9.701h-9.726V147H226.412L226.412,147z M216.686,151.799v36.5h9.726v-36.5H216.686
	L216.686,151.799z"/>
<path fill="#898A8D" d="M323.667,162c0-4.602-0.301-8.4-0.901-11.301c-0.601-2.8-1.688-5.301-3.267-7.5
	c-1.576-2.1-3.791-3.6-6.645-4.6c-2.854-0.9-6.482-1.301-10.889-1.301h-17.194v51h17.194c4.506,0,8.21-0.5,11.113-1.6
	s5.118-2.8,6.646-5.199c1.526-2.4,2.565-5.101,3.116-8.101C323.39,170.399,323.667,166.6,323.667,162L323.667,162z M313.948,161.498
	c0,2.701-0.051,4.801-0.149,6.301c-0.352,3.9-1.253,6.602-2.703,8.102c-1.703,1.799-4.431,2.699-8.185,2.699h-8.414V147h8.414
	c2.502,0,4.491,0.199,5.969,0.699c1.476,0.5,2.591,1.5,3.342,2.8s1.226,2.8,1.427,4.5
	C313.847,156.6,313.948,158.699,313.948,161.498L313.948,161.498z"/>
<path fill="#898A8D" d="M406.333,147v-9.701h-9.726V147H406.333L406.333,147z M396.607,151.799v36.5h9.726v-36.5H396.607
	L396.607,151.799z"/>
</svg>
