<?xml version="1.0" encoding="utf-8"?>
<!-- Generator: Adobe Illustrator 15.0.0, SVG Export Plug-In . SVG Version: 6.00 Build 0)  -->
<!DOCTYPE svg PUBLIC "-//W3C//DTD SVG 1.1//EN" "http://www.w3.org/Graphics/SVG/1.1/DTD/svg11.dtd">
<svg version="1.1" id="Layer_1" xmlns="http://www.w3.org/2000/svg" xmlns:xlink="http://www.w3.org/1999/xlink" x="0px" y="0px"
	 width="72.035px" height="89.25px" viewBox="0 0 72.035 89.25" enable-background="new 0 0 72.035 89.25" xml:space="preserve">
<path fill="#FFFFFF" d="M44.402,2.13L42.94,3.67l24.843,23.51v50.5c-0.002,2.02-0.824,3.83-2.176,5.16
	c-1.354,1.33-3.213,2.15-5.291,2.16H11.719c-2.078-0.01-3.937-0.83-5.292-2.16c-1.351-1.33-2.173-3.141-2.175-5.16V11.57
	C4.254,9.56,5.076,7.75,6.427,6.41c1.355-1.33,3.214-2.15,5.292-2.15h32.683V2.13L42.94,3.67L44.402,2.13V0H11.719
	c-3.22,0-6.157,1.29-8.275,3.38c-2.12,2.08-3.445,5-3.444,8.19V77.68c-0.001,3.2,1.324,6.11,3.444,8.189
	c2.118,2.091,5.055,3.381,8.275,3.381h48.597c3.219,0,6.156-1.29,8.274-3.381c2.12-2.079,3.444-4.989,3.444-8.189V26.26
	c0-0.58-0.242-1.141-0.666-1.54L45.863,0.59C45.467,0.21,44.945,0,44.402,0V2.13L44.402,2.13z M39.26,2.63v20.14
	c-0.001,2.54,1.055,4.86,2.741,6.521c1.684,1.659,4.021,2.69,6.578,2.69h21.328c1.174,0,2.127-0.961,2.127-2.131
	s-0.953-2.13-2.127-2.13H48.58c-1.416,0-2.674-0.56-3.596-1.46c-0.917-0.91-1.471-2.13-1.472-3.49V2.63
	c0-1.17-0.952-2.12-2.126-2.12S39.26,1.46,39.26,2.63L39.26,2.63z"/>
</svg>
