<?xml version="1.0" encoding="utf-8"?>
<!-- Generator: Adobe Illustrator 15.0.0, SVG Export Plug-In . SVG Version: 6.00 Build 0)  -->
<!DOCTYPE svg PUBLIC "-//W3C//DTD SVG 1.1//EN" "http://www.w3.org/Graphics/SVG/1.1/DTD/svg11.dtd">
<svg version="1.1" id="Layer_1" xmlns="http://www.w3.org/2000/svg" xmlns:xlink="http://www.w3.org/1999/xlink" x="0px" y="0px"
	 width="37.593px" height="50.801px" viewBox="0 0 37.593 50.801" enable-background="new 0 0 37.593 50.801" xml:space="preserve">
<path fill="#717073" d="M3.723,2.121h22.596l9.148,9.66V46.92c0,0.512-0.191,0.951-0.488,1.262
	c-0.299,0.309-0.682,0.488-1.109,0.488H3.723c-0.427,0-0.81-0.18-1.109-0.488c-0.297-0.311-0.488-0.75-0.488-1.262V3.871
	c0-0.5,0.191-0.939,0.488-1.26C2.913,2.301,3.296,2.121,3.723,2.121c0.587,0,1.063-0.471,1.063-1.061S4.31,0,3.723,0
	C2.681-0.01,1.734,0.451,1.07,1.15C0.404,1.852,0,2.82,0,3.871V46.92c0,1.051,0.404,2.021,1.07,2.721
	c0.664,0.701,1.611,1.16,2.653,1.16H33.87c1.043,0,1.989-0.459,2.653-1.16c0.666-0.699,1.07-1.67,1.07-2.721V11.361
	c0-0.281-0.104-0.539-0.291-0.74L27.547,0.33C27.348,0.121,27.069,0,26.777,0H3.723C3.136,0,2.66,0.471,2.66,1.061
	S3.136,2.121,3.723,2.121L3.723,2.121z M24.827,1.061v8.42c0,1.051,0.404,2.021,1.071,2.721c0.663,0.699,1.61,1.16,2.652,1.15h7.979
	c0.587,0,1.063-0.471,1.063-1.061s-0.477-1.061-1.063-1.061H28.55c-0.427,0-0.811-0.18-1.109-0.49
	c-0.296-0.32-0.487-0.76-0.487-1.26v-8.42C26.954,0.471,26.477,0,25.89,0S24.827,0.471,24.827,1.061L24.827,1.061z M6.383,15.23
	h10.64c0.587,0,1.063-0.48,1.063-1.068c0-0.582-0.476-1.061-1.063-1.061H6.383c-0.587,0-1.063,0.479-1.063,1.061
	C5.32,14.75,5.796,15.23,6.383,15.23L6.383,15.23z M6.383,20.842h24.826c0.588,0,1.063-0.471,1.063-1.061s-0.476-1.061-1.063-1.061
	H6.383c-0.587,0-1.063,0.471-1.063,1.061S5.796,20.842,6.383,20.842L6.383,20.842z M6.383,26.461h24.826
	c0.588,0,1.063-0.48,1.063-1.061c0-0.59-0.476-1.07-1.063-1.07H6.383c-0.587,0-1.063,0.48-1.063,1.07
	C5.32,25.98,5.796,26.461,6.383,26.461L6.383,26.461z M6.383,32.08h24.826c0.588,0,1.063-0.479,1.063-1.068
	c0-0.58-0.476-1.061-1.063-1.061H6.383c-0.587,0-1.063,0.48-1.063,1.061C5.32,31.602,5.796,32.08,6.383,32.08L6.383,32.08z
	 M6.383,37.691H25.89c0.587,0,1.063-0.471,1.063-1.061s-0.477-1.059-1.063-1.059H6.383c-0.587,0-1.063,0.469-1.063,1.059
	S5.796,37.691,6.383,37.691L6.383,37.691z"/>
</svg>
