<?xml version="1.0" encoding="utf-8"?>
<!-- Generator: Adobe Illustrator 15.0.0, SVG Export Plug-In . SVG Version: 6.00 Build 0)  -->
<!DOCTYPE svg PUBLIC "-//W3C//DTD SVG 1.1//EN" "http://www.w3.org/Graphics/SVG/1.1/DTD/svg11.dtd">
<svg version="1.1" id="Layer_1" xmlns="http://www.w3.org/2000/svg" xmlns:xlink="http://www.w3.org/1999/xlink" x="0px" y="0px"
	 width="29.188px" height="29.188px" viewBox="0 0 29.188 29.188" enable-background="new 0 0 29.188 29.188" xml:space="preserve">
<path fill="#717073" d="M17.817,12.124l-0.168,2.183h-2.238v7.585h-2.829v-7.585h-1.509v-2.183h1.509v-1.467
	c0-0.646,0.016-1.644,0.486-2.261c0.495-0.654,1.174-1.1,2.342-1.1c1.903,0,2.705,0.272,2.705,0.272l-0.377,2.234
	c0,0-0.629-0.182-1.215-0.182c-0.588,0-1.113,0.211-1.113,0.797v1.705H17.817z M14.594,0C6.534,0,0,6.535,0,14.595
	c0,8.061,6.534,14.594,14.594,14.594c8.061,0,14.594-6.533,14.594-14.594C29.188,6.535,22.655,0,14.594,0"/>
</svg>
