<?xml version="1.0" encoding="utf-8"?>
<!-- Generator: Adobe Illustrator 15.0.0, SVG Export Plug-In . SVG Version: 6.00 Build 0)  -->
<!DOCTYPE svg PUBLIC "-//W3C//DTD SVG 1.1//EN" "http://www.w3.org/Graphics/SVG/1.1/DTD/svg11.dtd">
<svg version="1.1" id="Layer_1" xmlns="http://www.w3.org/2000/svg" xmlns:xlink="http://www.w3.org/1999/xlink" x="0px" y="0px"
	 width="279.071px" height="85.115px" viewBox="0 0 279.071 85.115" enable-background="new 0 0 279.071 85.115"
	 xml:space="preserve">
<path fill="#EE3124" d="M278.27,46.199c0.37-0.299,0.61-0.8,0.69-1.199l0.09-0.6c0.05-0.301-0.3-0.501-0.53-0.301l-1.16,0.9
	c-0.369,0.3-0.609,0.799-0.689,1.301l-0.09,0.499c-0.051,0.3,0.3,0.499,0.529,0.399L278.27,46.199L278.27,46.199z M278.689,47.899
	l0.13-0.601c0.07-0.199-0.26-0.499-0.5-0.299l-1.229,0.899c-0.391,0.3-0.66,0.7-0.78,1.2l-0.13,0.5c-0.07,0.3,0.27,0.6,0.51,0.4
	l1.23-0.9C278.31,48.799,278.58,48.399,278.689,47.899 M278.22,50.801l0.17-0.502c0.09-0.299-0.229-0.6-0.479-0.399l-1.291,0.8
	c-0.409,0.2-0.709,0.601-0.85,1.1l-0.18,0.601c-0.08,0.2,0.24,0.5,0.479,0.4l1.3-0.8C277.77,51.699,278.069,51.3,278.22,50.801
	 M276.609,54.799c0.42-0.199,0.75-0.6,0.93-1.1l0.211-0.5c0.109-0.3-0.19-0.6-0.45-0.399l-1.351,0.7c-0.42,0.199-0.739,0.6-0.93,1
	l-0.2,0.6c-0.109,0.201,0.19,0.5,0.44,0.4L276.609,54.799L276.609,54.799z M275.66,57.5c0.439-0.2,0.789-0.5,1-0.9l0.25-0.6
	c0.129-0.2-0.15-0.601-0.421-0.4l-1.39,0.6c-0.439,0.201-0.79,0.5-1,1l-0.25,0.5c-0.12,0.301,0.15,0.602,0.42,0.5L275.66,57.5
	L275.66,57.5z M274.34,44.801l-1.63-2.201l1.62-2.299l-2.631,0.898L270.1,39l0.01,2.699l-2.609,0.9l2.63,0.8l-0.011,2.8l1.621-2.3
	L274.34,44.801L274.34,44.801z M257.729,16.301l1.96,1.898l-1.26,2.5l2.46-1.3l1.93,2l-0.439-2.8l2.45-1.199L262.1,17l-0.42-2.701
	l-1.24,2.4L257.729,16.301L257.729,16.301z M262.38,45.9l0.659,0.1l0.201-2.2l-3.58-0.3l-0.07,0.799l1.439,0.102l-0.119,1.299
	l0.659,0.1l0.11-1.299l0.82,0.1L262.38,45.9L262.38,45.9z M260.96,51.6l0.649,0.199l0.82-2.6L261.779,49l-0.279,0.899l-2.78-0.8
	l-0.24,0.7l2.771,0.899L260.96,51.6L260.96,51.6z M259.1,53.6l0.14-0.301l0.891,0.4c-0.011,0.102-0.05,0.2-0.141,0.4
	c-0.17,0.3-0.409,0.4-0.71,0.3C259,54.3,258.92,53.899,259.1,53.6 M258.46,54.199h0.01c-0.03,0.301,0.1,0.701,0.52,0.9
	c0.29,0.201,0.57,0.201,0.82,0.1c0.29-0.199,0.53-0.5,0.76-0.899c0.2-0.4,0.341-0.8,0.421-1.001l-3.181-1.6l-0.36,0.7L258.72,53
	l-0.11,0.299c-0.149,0.201-0.33,0.301-0.779,0.201c-0.44-0.1-0.74-0.1-0.86-0.1L256.6,54.1c0.16,0,0.63,0.1,1.04,0.2
	C257.979,54.399,258.26,54.399,258.46,54.199 M251.22,42.5l0.35,0.4l0.95,0.999l-1.89-0.399l-0.95,1.699l-0.22-1.898l-1.891-0.4
	l1.761-0.801l-0.221-1.9l0.561,0.601l0.75,0.8l1.75-0.8L251.22,42.5L251.22,42.5z M252.76,38.801
	c-1.29-3.602-3.971-6.701-7.721-8.401c-7.329-3.3-15.959,0-19.27,7.3c-3.3,7.4-0.04,16,7.3,19.301c3.74,1.699,7.82,1.699,11.36,0.3
	c-4.41,2.3-9.83,2.7-14.75,0.499c-8.391-3.799-12.12-13.699-8.34-22.1c3.779-8.399,13.649-12.1,22.04-8.3
	C248.3,29.6,251.619,33.9,252.76,38.801 M238.67,56.899c-7.26-0.399-12.82-6.601-12.44-13.8c0.39-7.299,6.59-12.8,13.84-12.4
	c4.25,0.201,7.92,2.4,10.16,5.7c-1.979-2.3-4.83-3.8-8.069-3.999c-6.341-0.301-11.75,4.6-12.091,10.9
	c-0.34,6.299,4.521,11.799,10.87,12.099c3.23,0.2,6.23-1,8.43-3.099C246.8,55.301,242.92,57.199,238.67,56.899 M251.369,46.899
	c-0.89,2.8-3.06,5.3-6.09,6.399c-5.18,1.9-10.91-0.799-12.81-5.898c-1.9-5.201,0.75-11.001,5.93-12.9c3.03-1.101,6.261-0.6,8.79,1
	c-2.05-1-4.49-1.199-6.8-0.301c-4.53,1.6-6.851,6.602-5.19,11.2c1.66,4.5,6.681,6.8,11.2,5.101
	C248.71,50.699,250.449,49,251.369,46.899 M240.47,43.699c0.11,1,0.52,1.801,1.13,2.5c0.89,0.9,2.189,1.4,3.58,1.301l0,0
	c0.28-0.1,0.55-0.1,0.8-0.201c0.9-0.299,1.66-0.899,2.19-1.6c-0.391,0.801-0.98,1.5-1.7,2c-0.65,0.5-1.4,0.801-2.22,0.9l-0.271,0.1
	c-1.34,0.1-2.62-0.199-3.64-1c-1.21-0.8-2.061-2.1-2.24-3.699c-0.11-1,0.07-2,0.48-2.9c0.439-0.9,1.159-1.7,2.06-2.299
	c0.19-0.102,0.39-0.201,0.6-0.301c0.48-0.201,1.011-0.301,1.55-0.4c1.881-0.2,3.641,0.6,4.74,2c-0.869-0.8-2.05-1.2-3.3-1.1
	c-0.63,0.1-1.2,0.3-1.71,0.6c-0.189,0.1-0.359,0.199-0.53,0.4c-0.8,0.6-1.35,1.6-1.5,2.6C240.439,43,240.43,43.301,240.47,43.699
	 M258.21,42.6c0-12-9.73-21.7-21.681-21.7c-11.939,0-21.66,9.7-21.66,21.7c0,11.9,9.721,21.6,21.66,21.6
	C248.479,64.199,258.21,54.5,258.21,42.6 M256.21,57.399l0.47-0.599l0.49,0.599c0.13,0.2,0.319,0.399,0.46,0.501l0,0
	c-0.21,0-0.46-0.201-0.67-0.201L256.21,57.399L256.21,57.399z M254.22,57.5l3.56,1.199l0.641-0.799l-2.25-3l-0.5,0.699l0.59,0.699
	l-0.61,0.801l-0.91-0.299L254.22,57.5L254.22,57.5z M253.17,59.5l0.21-0.201L255,61c-0.04,0-0.11,0.1-0.24,0.301
	c-0.51,0.398-1.1,0.499-1.61-0.102C252.56,60.6,252.63,60,253.17,59.5 M252.539,61.8c0.44,0.499,0.91,0.601,1.381,0.601
	c0.43-0.102,0.83-0.301,1.33-0.701c0.3-0.3,0.56-0.6,0.75-0.9l-2.44-2.498c-0.16,0.099-0.399,0.299-0.7,0.599
	c-0.51,0.501-0.83,1-0.89,1.5C251.92,60.799,252.069,61.301,252.539,61.8 M250.319,61.1L248.42,62.4l0.369,0.6l1.221-0.9l0.48,0.701
	L249.39,63.6l0.37,0.5l1.1-0.7L251.27,64l-1.16,0.8l0.37,0.499l1.84-1.199L250.319,61.1L250.319,61.1z M235.51,67.699
	c0,0.5,0.46,1,1.029,1c0.561,0,1.021-0.5,1.021-1c0-0.6-0.46-1.1-1.021-1.1C235.97,66.6,235.51,67.1,235.51,67.699 M221.76,63.5
	c0.18-0.2,0.49-0.301,0.83-0.101l0.26,0.2l-0.55,0.8c-0.061,0-0.16,0-0.32-0.099C221.67,64,221.58,63.799,221.76,63.5 M221.05,63.1
	c-0.181,0.3-0.22,0.6-0.14,0.801c0.1,0.299,0.359,0.6,0.8,0.899c0.359,0.3,0.7,0.399,0.95,0.601l1.979-3l-0.67-0.4l-0.79,1.1
	l-0.2-0.1c-0.27-0.199-0.33-0.4-0.16-0.801c0.16-0.399,0.25-0.699,0.261-0.8l-0.69-0.499c-0.021,0.1-0.19,0.6-0.33,0.999
	c-0.11,0.3-0.13,0.601,0.03,0.8h-0.01C221.76,62.699,221.31,62.699,221.05,63.1 M217.939,60.799l-0.46,0.502l1.62,1.5l2.45-2.602
	l-1.67-1.6l-0.46,0.5l1.08,1l-0.58,0.6l-0.971-0.898L218.5,60.3l0.97,0.899l-0.51,0.601L217.939,60.799L217.939,60.799z
	 M216.029,57.9c0.29-0.201,0.631-0.201,0.891,0.199c0.08,0.1,0.119,0.1,0.149,0.201l-0.83,0.599c-0.05,0-0.13-0.1-0.229-0.2
	C215.76,58.399,215.77,58.1,216.029,57.9 M215.1,58.1c0,0.3,0.141,0.6,0.45,1s0.55,0.701,0.739,0.8l2.791-2.2l-0.5-0.6l-1.011,0.801
	l-0.159-0.201C217.119,57.3,216.77,57,216.39,57c-0.29-0.101-0.59,0-0.87,0.3C215.24,57.5,215.1,57.799,215.1,58.1 M214.119,53
	l-1.779,1l0.39,0.699l1.82-1c0.56-0.299,0.93-0.199,1.14,0.102c0.19,0.398,0.03,0.799-0.52,1.1l-1.82,0.899l0.391,0.8l1.77-1
	c1.01-0.5,1.189-1.3,0.76-2.1C215.83,52.699,215.09,52.5,214.119,53 M211.979,50.299c0.261-0.1,0.5,0.102,0.63,0.502l0.09,0.199
	l-0.8,0.3c-0.03-0.101-0.069-0.2-0.13-0.3C211.649,50.6,211.72,50.4,211.979,50.299 M213.41,49.699c0.359-0.1,0.59,0.2,0.709,0.5
	c0.041,0.1,0.08,0.201,0.091,0.301l-0.96,0.301l-0.09-0.201C213.029,50.199,213.06,49.8,213.41,49.699 M211.1,50.199
	c-0.07,0.301-0.02,0.602,0.14,1c0.13,0.4,0.3,0.801,0.41,1L215,51.1c-0.03-0.2-0.101-0.5-0.23-0.9c-0.23-0.6-0.48-1-0.76-1.199
	c-0.24-0.201-0.53-0.201-0.84-0.1c-0.44,0.1-0.641,0.499-0.62,0.899l-0.011,0.1c-0.27-0.399-0.609-0.5-0.909-0.399
	C211.319,49.6,211.14,49.899,211.1,50.199 M213.1,46.699l-2.87,0.5l0.14,0.801l3.541-0.6l-0.381-2.201l-0.67,0.101L213.1,46.699
	L213.1,46.699z M213.43,43.301l-3.59,0.199l0.04,0.799l3.59-0.199L213.43,43.301L213.43,43.301z M210.56,39.9
	c0.03-0.301,0.11-0.501,0.19-0.701L210.119,39c-0.09,0.199-0.199,0.5-0.229,0.9c-0.09,1.1,0.53,1.999,1.75,2.1
	c1.021,0.1,1.84-0.5,1.94-1.699c0.039-0.502-0.021-0.801-0.08-1.001l-0.641,0.1c0.051,0.2,0.08,0.399,0.061,0.7
	c-0.061,0.7-0.54,1.1-1.26,1C210.859,41.1,210.51,40.6,210.56,39.9 M213.16,33.9c0.659,0.199,1.06,0.6,0.89,1.199
	c-0.17,0.5-0.75,0.6-1.42,0.4c-0.66-0.201-1.061-0.7-0.88-1.199C211.92,33.799,212.55,33.699,213.16,33.9 M211.14,34.1
	c-0.33,1,0.22,1.9,1.24,2.2c0.97,0.399,1.93,0,2.27-1.001c0.33-0.998-0.13-1.899-1.25-2.299C212.46,32.699,211.49,33,211.14,34.1
	 M215.369,30l-0.58-0.301L214.18,30.9l-0.72-0.4l0.649-1.201l-0.59-0.399l-1.03,2.001l3.171,1.699l0.379-0.7l-1.27-0.7L215.369,30
	L215.369,30z M217.029,25.301l0.631-0.701l-0.511-0.5l-1.8,2.1l0.52,0.5l0.62-0.8l2.221,1.899l0.529-0.6L217.029,25.301
	L217.029,25.301z M221.83,22.699l-1.291-1.6l-0.619,0.5l1.32,1.6c0.409,0.5,0.42,0.9,0.09,1.2c-0.32,0.2-0.7,0.101-1.101-0.3
	l-1.319-1.6l-0.631,0.5l1.29,1.5c0.73,0.899,1.46,1,2.16,0.4C222.449,24.3,222.539,23.5,221.83,22.699 M223.89,20.899L223.609,21
	l-0.49-0.801c0.041-0.1,0.131-0.1,0.301-0.199c0.33-0.2,0.609-0.2,0.77,0.1C224.35,20.4,224.24,20.699,223.89,20.899 M226.27,21.799
	c-0.13-0.1-0.46-0.399-0.76-0.699c-0.25-0.299-0.49-0.4-0.76-0.4l0,0c0.21-0.199,0.33-0.699,0.1-1.1c-0.16-0.299-0.39-0.4-0.66-0.5
	c-0.32,0-0.68,0.1-1.14,0.4c-0.38,0.199-0.7,0.399-0.9,0.6l1.771,3l0.689-0.4L223.91,21.5l0.209-0.101c0.291-0.2,0.48-0.1,0.791,0.2
	c0.31,0.301,0.529,0.6,0.64,0.6L226.27,21.799L226.27,21.799z M230,20.299l-1.9-1.5L228.68,17l-0.94,0.299l-0.34,1.4
	c-0.03,0.201-0.069,0.301-0.09,0.5h-0.021l-0.56-1.5L225.979,18l1.261,3.3l0.76-0.2l-0.42-1.1l0.159-0.5l1.37,1.1L230,20.299
	L230,20.299z M230.92,20.1l2.25-0.5l-0.141-0.6l-1.439,0.301l-0.17-0.801l1.29-0.301l-0.13-0.699l-1.291,0.301L231.14,17.1l1.37-0.3
	l-0.13-0.7l-2.17,0.5L230.92,20.1L230.92,20.1z M235.949,17.899l1.101-2.101h-0.91l-0.33,0.9c-0.1,0.301-0.18,0.5-0.25,0.701h-0.01
	c-0.101-0.201-0.181-0.4-0.3-0.701l-0.41-0.799h-0.92l1.22,2.1l0.05,1.5l0.82-0.101L235.949,17.899L235.949,17.899z M243.489,20.4
	l0.561-3.501l-1.03-0.3l-0.63,1.1c-0.2,0.4-0.42,0.801-0.61,1.201h-0.02c0.02-0.4,0-0.9-0.021-1.301l-0.09-1.299l-1.06-0.201
	l-0.98,3.5l0.73,0.1l0.35-1.3c0.12-0.399,0.26-0.999,0.38-1.399h0.011c-0.021,0.4,0,1,0.02,1.399l0.08,1.4l0.62,0.2l0.729-1.301
	c0.221-0.399,0.48-0.8,0.681-1.299h0.02c-0.11,0.499-0.21,1.1-0.28,1.5l-0.239,1.299L243.489,20.4L243.489,20.4z M245.41,21.199
	l1.319-3.3l-0.76-0.3l-1.32,3.3L245.41,21.199L245.41,21.199z M249.21,23.199l1.77-3.199l-0.649-0.301l-0.521,0.9
	c-0.26,0.4-0.49,0.9-0.67,1.301h-0.021c0.061-0.4,0.101-0.9,0.101-1.4l-0.01-1.5l-0.82-0.4l-1.771,3.1l0.65,0.4l0.53-1
	c0.29-0.5,0.53-0.9,0.739-1.4h0.021c-0.05,0.5-0.08,1-0.08,1.4l-0.01,1.6L249.21,23.199L249.21,23.199z M250.949,24.5l2.19-2.9
	l-0.65-0.5L250.3,24L250.949,24.5L250.949,24.5z M255.359,24.699l0.58-0.399c-0.08-0.2-0.229-0.4-0.52-0.7
	c-0.61-0.6-1.301-0.6-1.73-0.199c-0.359,0.4-0.32,0.899-0.04,1.398c0.2,0.502,0.23,0.701,0.08,0.801c-0.17,0.2-0.42,0.2-0.68-0.1
	c-0.25-0.199-0.41-0.6-0.49-0.801l-0.59,0.4c0.069,0.201,0.28,0.6,0.58,0.8c0.7,0.7,1.39,0.7,1.81,0.3
	c0.351-0.399,0.37-0.8,0.09-1.5c-0.209-0.399-0.289-0.6-0.119-0.8c0.13-0.099,0.359-0.099,0.609,0.101
	C255.189,24.3,255.3,24.5,255.359,24.699 M258.189,28l0.54-0.4l-1.66-2.2l-0.54,0.4l0.58,0.8l-2.33,1.701L255.27,29l2.33-1.7
	L258.189,28L258.189,28z M259.439,31c-0.27,0.199-0.56,0.1-0.76-0.301l-0.15-0.3L259.41,30c0.039,0,0.1,0.1,0.199,0.3
	C259.779,30.6,259.739,30.9,259.439,31 M260.39,31.1c0.06-0.4-0.04-0.7-0.29-1.2c-0.21-0.399-0.42-0.7-0.58-0.899l-3.13,1.6
	l0.38,0.8l1.25-0.7l0.11,0.201c0.149,0.299,0.12,0.499-0.23,0.799c-0.35,0.301-0.56,0.5-0.63,0.6L257.66,33
	c0.09-0.101,0.459-0.4,0.76-0.701c0.25-0.199,0.399-0.499,0.369-0.699h0.011c0.25,0.2,0.68,0.3,1.08,0.1
	C260.17,31.6,260.34,31.301,260.39,31.1 M259.97,35l2.36,0.4l-0.291-0.801l-0.93-0.1c-0.279,0-0.5,0-0.74,0h-0.01
	c0.2-0.199,0.351-0.301,0.57-0.5l0.7-0.601l-0.3-0.899l-1.65,1.699l-1.391,0.5l0.261,0.801L259.97,35L259.97,35z M262.569,40.399
	c0.05,0.5-0.479,0.899-1.12,1.001c-0.699,0-1.239-0.301-1.289-0.801c-0.041-0.6,0.42-0.9,1.129-1
	C261.979,39.6,262.529,39.799,262.569,40.399 M263.22,40.399c-0.09-1.1-0.95-1.7-2.021-1.599c-1.02,0.099-1.77,0.699-1.68,1.799
	c0.08,1,0.85,1.7,2.03,1.6C262.539,42.1,263.31,41.5,263.22,40.399 M265.06,42.6c0,15.701-12.79,28.5-28.521,28.5
	c-15.729,0-28.529-12.799-28.529-28.5c0-15.799,12.8-28.5,28.529-28.5C252.27,14.1,265.06,26.801,265.06,42.6 M265.71,42.6
	c0-16.1-13.08-29.2-29.171-29.2c-16.09,0-29.18,13.101-29.18,29.2s13.09,29.201,29.18,29.201
	C252.63,71.801,265.71,58.699,265.71,42.6 M246.06,10.199l2.56,1L248.39,14l1.79-2.101l2.53,1.001l-1.45-2.301l1.79-2.1l-2.69,0.6
	l-1.42-2.301l-0.21,2.801L246.06,10.199L246.06,10.199z M240.13,9l-2.24-1.601l0.86-2.6l-2.23,1.6l-2.21-1.6l0.86,2.6L232.939,9
	h2.771l0.829,2.6L237.39,9H240.13L240.13,9z M220.01,8.5l1.8,2.1l-1.44,2.301l2.551-1.001l1.77,2.101l-0.22-2.801l2.53-1
	L224.319,9.5l-0.21-2.701l-1.43,2.4L220.01,8.5L220.01,8.5z M208.229,17.4l2.47,1.299l-0.439,2.7l1.95-2l2.43,1.3l-1.26-2.5
	l1.95-1.898l-2.73,0.398l-1.23-2.4L210.939,17L208.229,17.4L208.229,17.4z M207.93,30.699l-2.11-1.8l1.07-2.499l-2.36,1.5
	L202.46,26.1l0.649,2.7l-2.35,1.399l2.76,0.2l0.63,2.7l1.05-2.6L207.93,30.699L207.93,30.699z M198.729,40.399l1.63,2.2
	l-1.619,2.201l2.629-0.901l1.601,2.3l-0.01-2.8l2.609-0.8l-2.63-0.9l0.01-2.699l-1.609,2.199L198.729,40.399L198.729,40.399z
	 M215.34,68.899l-1.96-1.999l1.26-2.4l-2.46,1.199l-1.93-1.9l0.439,2.701l-2.45,1.199l2.73,0.5l0.42,2.7l1.24-2.499L215.34,68.899
	L215.34,68.899z M227.01,75l-2.561-1.101l0.23-2.7l-1.79,2.102l-2.53-1.102l1.45,2.4l-1.79,2.1L222.71,76l1.42,2.3l0.21-2.7
	L227.01,75L227.01,75z M232.939,76.199l2.24,1.602l-0.86,2.6l2.23-1.701l2.21,1.701l-0.86-2.701l2.23-1.6l-2.761,0.1l-0.84-2.699
	l-0.85,2.699H232.939L232.939,76.199z M253.06,76.6l-1.8-2.1l1.439-2.301l-2.55,1.102l-1.77-2.102l0.22,2.7L246.069,75l2.69,0.6
	l0.2,2.7l1.439-2.3L253.06,76.6L253.06,76.6z M264.84,67.699l-2.471-1.199l0.44-2.701l-1.95,1.9l-2.43-1.199l1.26,2.4l-1.95,1.999
	l2.73-0.499l1.229,2.499l0.431-2.8L264.84,67.699L264.84,67.699z M267.869,54.699l-2.729-0.3l2.11,1.8l-1.061,2.5l2.35-1.399
	l2.07,1.8L269.96,56.4l2.35-1.4l-2.76-0.201l-0.63-2.699L267.869,54.699L267.869,54.699z M274.52,60.199c0.45-0.1,0.83-0.5,1.07-0.9
	l0.279-0.499c0.15-0.2-0.109-0.601-0.379-0.499L274.06,58.8c-0.46,0.2-0.83,0.499-1.069,1.001l-0.28,0.499
	c-0.15,0.2,0.109,0.601,0.38,0.499L274.52,60.199L274.52,60.199z M273.199,62.801c0.461-0.102,0.86-0.4,1.131-0.801l0.31-0.5
	c0.17-0.199-0.07-0.6-0.351-0.5l-1.459,0.399c-0.461,0.2-0.86,0.4-1.131,0.899l-0.319,0.4c-0.16,0.301,0.069,0.601,0.35,0.601
	L273.199,62.801L273.199,62.801z M271.699,65.299c0.461-0.1,0.881-0.299,1.181-0.699l0.35-0.5c0.181-0.199-0.03-0.6-0.319-0.5
	l-1.49,0.301c-0.46,0.1-0.881,0.4-1.18,0.799l-0.351,0.4c-0.18,0.301,0.03,0.6,0.31,0.6L271.699,65.299L271.699,65.299z M268.51,68
	l1.51-0.301c0.47,0,0.91-0.3,1.23-0.6l0.39-0.5c0.19-0.2,0.01-0.6-0.28-0.5l-1.51,0.2c-0.47,0.1-0.91,0.3-1.23,0.7l-0.38,0.399
	C268.039,67.6,268.22,68,268.51,68 M266.66,70.1l1.52-0.1c0.48,0,0.93-0.201,1.28-0.601L269.869,69c0.211-0.199,0.061-0.6-0.239-0.6
	l-1.511,0.199c-0.479,0-0.93,0.201-1.279,0.5l-0.41,0.4C266.21,69.799,266.369,70.1,266.66,70.1 M264.67,72.199h1.52
	c0.48,0,0.94-0.199,1.32-0.5l0.43-0.4c0.23-0.199,0.1-0.6-0.189-0.6h-1.521c-0.479,0-0.95,0.2-1.319,0.5l-0.44,0.4
	C264.24,71.801,264.369,72.199,264.67,72.199 M262.529,74l1.521,0.199c0.479,0,0.96-0.199,1.35-0.5l0.46-0.3
	c0.25-0.2,0.141-0.601-0.149-0.601l-1.521-0.1c-0.479,0-0.949,0.1-1.35,0.4l-0.46,0.3C262.14,73.6,262.239,74,262.529,74
	 M260.27,75.799l1.51,0.201c0.48,0.1,0.961,0,1.37-0.301l0.49-0.3c0.25-0.2,0.18-0.599-0.11-0.599l-1.51-0.301
	c-0.47,0-0.96,0.1-1.37,0.399l-0.489,0.3C259.91,75.3,259.979,75.699,260.27,75.799 M257.899,77.4l1.49,0.299
	c0.47,0.102,0.96,0,1.39-0.199l0.51-0.301c0.261-0.199,0.221-0.6-0.069-0.6l-1.49-0.4c-0.47-0.1-0.96,0-1.39,0.301l-0.51,0.199
	C257.569,76.899,257.609,77.299,257.899,77.4 M255.42,78.799l1.46,0.4c0.46,0.102,0.96,0.102,1.409-0.1l0.521-0.301
	c0.28-0.1,0.26-0.499-0.021-0.6l-1.47-0.398c-0.46-0.201-0.95-0.102-1.399,0.099l-0.53,0.2
	C255.119,78.3,255.14,78.699,255.42,78.799 M252.85,80l1.43,0.5c0.45,0.199,0.95,0.199,1.41,0l0.54-0.201
	c0.28-0.1,0.29-0.499,0.021-0.6l-1.431-0.6c-0.45-0.1-0.95-0.1-1.409,0.1l-0.541,0.2C252.59,79.5,252.569,79.899,252.85,80
	 M250.199,81l1.391,0.699c0.439,0.201,0.93,0.201,1.41,0l0.55-0.1c0.29-0.1,0.33-0.5,0.06-0.7l-1.39-0.601
	c-0.44-0.199-0.931-0.199-1.41-0.1l-0.55,0.201C249.97,80.5,249.93,80.899,250.199,81 M247.479,81.9l1.351,0.699
	c0.42,0.2,0.91,0.3,1.39,0.2l0.569-0.101c0.291-0.1,0.36-0.5,0.101-0.699l-1.34-0.7c-0.42-0.2-0.92-0.3-1.4-0.101l-0.56,0.101
	C247.3,81.3,247.22,81.799,247.479,81.9 M244.71,82.6L246,83.4c0.41,0.199,0.899,0.299,1.38,0.199h0.58c0.29-0.1,0.39-0.5,0.14-0.6
	l-1.29-0.9c-0.41-0.199-0.89-0.301-1.38-0.199l-0.57,0.1C244.56,82,244.46,82.399,244.71,82.6 M241.899,83l1.23,0.899
	c0.39,0.3,0.87,0.4,1.36,0.4h0.579c0.3-0.101,0.42-0.499,0.19-0.601l-1.24-0.899c-0.38-0.3-0.859-0.4-1.35-0.4h-0.58
	C241.789,82.5,241.66,82.899,241.899,83 M239.06,83.299l1.17,1.001c0.37,0.3,0.83,0.499,1.33,0.499l0.58-0.1
	c0.3,0,0.45-0.3,0.229-0.5l-1.17-1c-0.369-0.3-0.83-0.5-1.33-0.5h-0.58C238.989,82.699,238.84,83.1,239.06,83.299 M236.22,83.4
	l1.09,0.999c0.34,0.399,0.8,0.601,1.29,0.601h0.58c0.3,0,0.48-0.301,0.27-0.5l-1.09-1.1c-0.35-0.301-0.8-0.501-1.3-0.501l-0.57-0.1
	C236.18,82.8,236.01,83.199,236.22,83.4 M233.369,83.299l1.021,1.101c0.32,0.399,0.76,0.601,1.25,0.601l0.57,0.1
	c0.3,0.1,0.5-0.301,0.31-0.5L235.5,83.4c-0.32-0.301-0.76-0.501-1.25-0.601l-0.57-0.101C233.38,82.699,233.17,83,233.369,83.299
	 M230.539,82.899l0.931,1.2c0.3,0.4,0.72,0.699,1.21,0.801l0.561,0.1c0.299,0,0.529-0.301,0.35-0.5l-0.94-1.201
	c-0.29-0.399-0.72-0.699-1.2-0.799l-0.569-0.101C230.59,82.399,230.359,82.699,230.539,82.899 M227.729,82.399l0.851,1.3
	c0.27,0.4,0.68,0.7,1.149,0.801l0.56,0.199c0.291,0,0.551-0.3,0.381-0.5l-0.851-1.3c-0.27-0.399-0.67-0.7-1.149-0.8l-0.551-0.199
	C227.819,81.9,227.569,82.199,227.729,82.399 M224.979,81.699L225.74,83c0.239,0.5,0.619,0.801,1.09,0.899l0.539,0.2
	c0.291,0.1,0.561-0.2,0.42-0.4l-0.76-1.398c-0.24-0.4-0.63-0.701-1.09-0.901l-0.55-0.1C225.1,81.199,224.83,81.5,224.979,81.699
	 M222.27,80.801l0.67,1.398c0.21,0.4,0.57,0.801,1.021,0.9l0.54,0.301c0.27,0.1,0.569-0.201,0.439-0.501l-0.66-1.3
	c-0.22-0.5-0.58-0.799-1.029-1l-0.53-0.199C222.439,80.299,222.14,80.6,222.27,80.801 M219.64,79.699l0.57,1.4
	c0.18,0.5,0.51,0.9,0.95,1.1l0.52,0.2c0.27,0.2,0.58-0.099,0.47-0.399l-0.569-1.4c-0.181-0.4-0.511-0.8-0.95-1l-0.521-0.299
	C219.84,79.199,219.529,79.5,219.64,79.699 M217.09,78.5l0.47,1.399c0.14,0.501,0.46,0.901,0.88,1.101l0.49,0.3
	c0.26,0.2,0.59-0.101,0.5-0.4l-0.47-1.399c-0.15-0.5-0.46-0.9-0.88-1.101l-0.49-0.3C217.33,77.899,217,78.199,217.09,78.5
	 M214.63,77l0.37,1.5c0.109,0.5,0.399,0.899,0.8,1.199L216.27,80c0.25,0.199,0.6-0.101,0.53-0.301l-0.37-1.5
	c-0.11-0.5-0.4-0.9-0.8-1.199l-0.47-0.301C214.91,76.5,214.56,76.699,214.63,77 M212.279,75.399l0.26,1.5
	c0.091,0.501,0.341,0.901,0.721,1.2l0.45,0.4c0.229,0.199,0.6,0,0.55-0.301l-0.271-1.5c-0.079-0.5-0.329-0.9-0.71-1.199l-0.449-0.4
	C212.59,74.899,212.229,75.1,212.279,75.399 M210.05,73.6l0.16,1.5c0.05,0.5,0.27,1,0.63,1.3l0.42,0.4c0.22,0.2,0.6,0,0.57-0.3
	l-0.16-1.5c-0.051-0.4-0.271-0.9-0.631-1.2l-0.43-0.4C210.39,73.199,210.02,73.301,210.05,73.6 M207.939,71.699l0.061,1.5
	c0.01,0.5,0.21,1,0.539,1.301l0.391,0.5c0.21,0.199,0.6,0,0.59-0.301l-0.05-1.5c-0.021-0.5-0.21-0.899-0.55-1.3l-0.391-0.399
	C208.319,71.299,207.939,71.4,207.939,71.699 M205.83,56.199l2.1-1.8l-2.76,0.2l-1.03-2.5l-0.64,2.699L200.76,55l2.359,1.4
	L202.47,59.1l2.1-1.8l2.33,1.399L205.83,56.199L205.83,56.199z M205.979,69.6l-0.05,1.6c-0.02,0.4,0.14,0.9,0.45,1.301l0.359,0.5
	c0.19,0.199,0.591,0.1,0.601-0.201l0.05-1.5c0.021-0.499-0.14-0.998-0.45-1.398l-0.359-0.4
	C206.39,69.199,205.989,69.399,205.979,69.6 M204,69c-0.04,0.399,0.08,0.9,0.359,1.301l0.33,0.499c0.18,0.2,0.58,0.2,0.61-0.101
	l0.16-1.5c0.05-0.5-0.07-1-0.36-1.399l-0.33-0.499c-0.17-0.201-0.57-0.102-0.6,0.099L204,69L204,69z M202.239,66.6
	c-0.079,0.5,0.021,1,0.271,1.4l0.29,0.5c0.16,0.301,0.569,0.199,0.62-0.1l0.26-1.5c0.09-0.4-0.01-0.9-0.26-1.4l-0.301-0.5
	c-0.149-0.2-0.56-0.2-0.609,0.1L202.239,66.6L202.239,66.6z M200.649,64.199c-0.12,0.4-0.06,0.9,0.16,1.4l0.271,0.5
	c0.13,0.3,0.539,0.2,0.619,0l0.37-1.5c0.11-0.5,0.05-1-0.17-1.4l-0.26-0.5c-0.14-0.299-0.55-0.299-0.62,0L200.649,64.199
	L200.649,64.199z M199.229,61.6c-0.149,0.5-0.13,1,0.07,1.4l0.22,0.6c0.12,0.199,0.53,0.199,0.62,0l0.47-1.5
	c0.15-0.4,0.13-0.9-0.06-1.4l-0.23-0.5c-0.12-0.3-0.53-0.3-0.62,0L199.229,61.6L199.229,61.6z M197.99,59
	c-0.181,0.4-0.19,0.899-0.03,1.399l0.189,0.501c0.09,0.299,0.511,0.299,0.62,0.1l0.57-1.4c0.18-0.5,0.189-1,0.029-1.4l-0.189-0.6
	c-0.09-0.3-0.51-0.3-0.62,0L197.99,59L197.99,59z M196.939,56.299c-0.21,0.4-0.26,0.9-0.13,1.4l0.15,0.5
	c0.069,0.301,0.489,0.4,0.609,0.102l0.67-1.401c0.21-0.399,0.261-0.899,0.13-1.399L198.22,55c-0.07-0.301-0.48-0.4-0.61-0.1
	L196.939,56.299L196.939,56.299z M196.08,53.5c-0.24,0.399-0.32,0.899-0.23,1.299l0.11,0.601c0.06,0.3,0.47,0.4,0.609,0.101
	l0.761-1.301c0.25-0.398,0.319-0.9,0.229-1.399l-0.11-0.499c-0.05-0.301-0.46-0.4-0.609-0.201L196.08,53.5L196.08,53.5z
	 M195.42,50.6c-0.271,0.4-0.381,0.9-0.32,1.4l0.07,0.6c0.029,0.3,0.43,0.4,0.59,0.1l0.859-1.199c0.271-0.4,0.381-0.9,0.32-1.4
	l-0.07-0.6c-0.029-0.301-0.43-0.4-0.6-0.199L195.42,50.6L195.42,50.6z M194.96,47.699c-0.29,0.4-0.44,0.9-0.421,1.4l0.03,0.5
	c0.021,0.3,0.41,0.5,0.591,0.3l0.93-1.2c0.3-0.399,0.449-0.898,0.42-1.4l-0.03-0.6c-0.01-0.3-0.399-0.398-0.58-0.199L194.96,47.699
	L194.96,47.699z M194.189,46.1l-0.01,0.6c-0.01,0.301,0.37,0.5,0.57,0.301l1.02-1.201c0.32-0.299,0.5-0.799,0.51-1.299l0.01-0.601
	c0.011-0.3-0.369-0.399-0.569-0.2l-1.021,1.102C194.38,45.199,194.199,45.6,194.189,46.1 M194.05,43.199l-0.05,0.5
	c-0.03,0.301,0.34,0.5,0.539,0.301l1.101-1c0.35-0.4,0.56-0.801,0.6-1.301l0.05-0.6c0.03-0.3-0.34-0.5-0.549-0.3l-1.091,1.1
	C194.3,42.199,194.09,42.699,194.05,43.199 M194.8,39c-0.37,0.3-0.61,0.699-0.69,1.199l-0.09,0.601c-0.05,0.3,0.3,0.499,0.53,0.3
	l1.16-1c0.37-0.301,0.609-0.7,0.689-1.2l0.091-0.601C196.539,38,196.189,37.8,195.96,38L194.8,39L194.8,39z M194.38,37.199
	l-0.13,0.601c-0.07,0.3,0.27,0.499,0.5,0.399l1.239-0.898c0.38-0.301,0.66-0.701,0.771-1.201l0.13-0.6
	c0.07-0.301-0.271-0.5-0.5-0.301l-1.24,0.9C194.76,36.3,194.489,36.799,194.38,37.199 M194.85,34.301l-0.17,0.599
	c-0.09,0.3,0.23,0.501,0.48,0.399l1.3-0.799c0.399-0.301,0.7-0.701,0.85-1.2l0.17-0.499c0.08-0.301-0.229-0.602-0.479-0.4
	l-1.29,0.799C195.3,33.5,195,33.799,194.85,34.301 M196.46,30.399c-0.421,0.2-0.75,0.601-0.931,1L195.33,32
	c-0.11,0.299,0.189,0.5,0.439,0.4l1.35-0.701c0.42-0.199,0.75-0.6,0.931-1.1l0.21-0.5c0.109-0.299-0.2-0.6-0.45-0.4L196.46,30.399
	L196.46,30.399z M197.41,27.6c-0.44,0.199-0.791,0.6-1,1l-0.24,0.5c-0.131,0.301,0.149,0.6,0.41,0.5l1.39-0.6
	c0.44-0.2,0.79-0.601,1-1l0.25-0.5c0.13-0.301-0.15-0.601-0.42-0.5L197.41,27.6L197.41,27.6z M198.55,24.9
	c-0.45,0.199-0.83,0.499-1.07,0.899l-0.28,0.499c-0.149,0.301,0.11,0.601,0.391,0.502l1.43-0.502c0.45-0.199,0.82-0.499,1.061-0.899
	l0.289-0.499c0.141-0.301-0.109-0.601-0.39-0.501L198.55,24.9L198.55,24.9z M199.869,22.301c-0.459,0.099-0.85,0.398-1.119,0.898
	l-0.32,0.4c-0.16,0.3,0.07,0.6,0.35,0.6l1.461-0.5c0.459-0.1,0.859-0.4,1.129-0.8l0.32-0.5c0.16-0.2-0.07-0.601-0.35-0.499
	L199.869,22.301L199.869,22.301z M201.38,19.8c-0.47,0.1-0.891,0.399-1.181,0.8L199.84,21c-0.18,0.3,0.029,0.6,0.32,0.6l1.489-0.4
	c0.47-0.1,0.88-0.3,1.181-0.699l0.35-0.5c0.18-0.2-0.03-0.601-0.311-0.5L201.38,19.8L201.38,19.8z M204.56,17.199l-1.51,0.201
	c-0.47,0.1-0.91,0.299-1.23,0.699l-0.38,0.4c-0.2,0.199-0.02,0.6,0.271,0.6l1.51-0.199c0.479-0.102,0.91-0.301,1.24-0.701
	l0.38-0.398C205.029,17.5,204.85,17.199,204.56,17.199 M206.41,15l-1.521,0.1c-0.479,0.1-0.93,0.3-1.28,0.6l-0.41,0.4
	c-0.21,0.201-0.05,0.6,0.24,0.6l1.521-0.1c0.47,0,0.93-0.2,1.27-0.6l0.42-0.4C206.859,15.399,206.699,15,206.41,15 M208.41,13h-1.53
	c-0.48,0-0.94,0.199-1.311,0.5l-0.439,0.399c-0.23,0.2-0.101,0.601,0.189,0.601h1.53c0.48,0,0.939-0.201,1.311-0.5l0.439-0.4
	C208.83,13.399,208.699,13,208.41,13 M210.539,11.1l-1.52-0.1c-0.48,0-0.96,0.1-1.35,0.4l-0.46,0.4
	c-0.24,0.099-0.141,0.499,0.149,0.599l1.521,0.101c0.479,0,0.95-0.101,1.35-0.4l0.46-0.4C210.93,11.5,210.83,11.1,210.539,11.1
	 M212.8,9.399l-1.511-0.2c-0.47-0.1-0.959,0-1.379,0.301l-0.48,0.299c-0.25,0.102-0.18,0.601,0.109,0.601l1.511,0.2
	c0.47,0.1,0.96,0,1.37-0.299L212.91,10C213.16,9.799,213.09,9.399,212.8,9.399 M215.17,7.8l-1.49-0.3
	c-0.47-0.101-0.96,0-1.391,0.199L211.779,8c-0.26,0.1-0.21,0.5,0.07,0.6l1.49,0.3c0.47,0.101,0.96,0,1.39-0.2L215.24,8.4
	C215.5,8.299,215.46,7.899,215.17,7.8 M217.649,6.399L216.189,6c-0.46-0.199-0.96-0.101-1.4,0.1l-0.529,0.2
	C213.989,6.5,214,6.9,214.279,7l1.471,0.399c0.46,0.101,0.949,0.101,1.399-0.099L217.68,7C217.949,6.9,217.93,6.5,217.649,6.399
	 M220.22,5.199l-1.431-0.6c-0.449-0.1-0.949-0.1-1.399,0.1l-0.55,0.2C216.56,5,216.55,5.4,216.819,5.5l1.44,0.5
	c0.439,0.199,0.95,0.199,1.4,0l0.539-0.199C220.49,5.699,220.5,5.299,220.22,5.199 M222.869,4.1l-1.39-0.6
	c-0.44-0.2-0.93-0.2-1.399-0.101l-0.561,0.2c-0.29,0.1-0.33,0.5-0.06,0.6l1.39,0.601c0.439,0.2,0.939,0.2,1.41,0.1l0.55-0.2
	C223.1,4.6,223.14,4.199,222.869,4.1 M225.59,3.3l-1.34-0.8c-0.431-0.201-0.92-0.201-1.4-0.1l-0.561,0.1
	c-0.299,0.1-0.369,0.5-0.109,0.6l1.35,0.699C223.949,4,224.439,4.1,224.92,4l0.569-0.1C225.779,3.799,225.85,3.399,225.59,3.3
	 M228.359,2.6l-1.29-0.8c-0.409-0.3-0.89-0.4-1.38-0.3l-0.57,0.1c-0.3,0-0.399,0.4-0.149,0.6L226.26,3c0.41,0.3,0.9,0.399,1.38,0.3
	l0.57-0.101C228.51,3.1,228.609,2.699,228.359,2.6 M231.17,2.1l-1.23-0.9c-0.39-0.299-0.87-0.4-1.359-0.299h-0.57
	c-0.3,0-0.43,0.4-0.19,0.6l1.23,0.9c0.38,0.299,0.87,0.4,1.36,0.4l0.569-0.102C231.279,2.699,231.41,2.299,231.17,2.1 M234.01,1.8
	L232.84,0.9c-0.37-0.301-0.83-0.501-1.33-0.501h-0.58c-0.3,0-0.45,0.399-0.23,0.601l1.17,1c0.37,0.299,0.841,0.4,1.33,0.4h0.58
	C234.08,2.4,234.229,2,234.01,1.8 M236.859,1.8l-1.1-1.101c-0.34-0.3-0.8-0.5-1.29-0.5l-0.58-0.1c-0.3,0-0.479,0.4-0.271,0.6
	l1.101,1c0.34,0.4,0.8,0.6,1.29,0.6h0.58C236.89,2.299,237.069,2,236.859,1.8 M239.699,1.899l-1.01-1.101
	c-0.33-0.399-0.77-0.6-1.26-0.699l-0.57-0.1c-0.3,0-0.5,0.399-0.31,0.6l1.02,1.1c0.32,0.4,0.761,0.6,1.25,0.701h0.57
	C239.689,2.5,239.899,2.1,239.699,1.899 M242.539,2.199L241.6,1c-0.3-0.4-0.72-0.601-1.21-0.7l-0.56-0.101
	c-0.301-0.1-0.53,0.301-0.351,0.5l0.94,1.2c0.29,0.399,0.72,0.601,1.199,0.7l0.57,0.1C242.479,2.801,242.71,2.4,242.539,2.199
	 M245.34,2.699L244.49,1.5c-0.271-0.4-0.681-0.701-1.15-0.9l-0.561-0.1c-0.29-0.101-0.539,0.199-0.38,0.5l0.851,1.299
	c0.27,0.301,0.67,0.601,1.149,0.801l0.561,0.1C245.25,3.3,245.5,3,245.34,2.699 M248.1,3.399l-0.76-1.3
	c-0.24-0.4-0.63-0.7-1.101-0.9L245.699,1c-0.279-0.1-0.56,0.199-0.41,0.5l0.761,1.301c0.239,0.398,0.62,0.699,1.09,0.898l0.54,0.201
	C247.97,4,248.24,3.699,248.1,3.399 M250.8,4.301L250.13,3c-0.21-0.5-0.57-0.801-1.021-1l-0.529-0.2
	c-0.28-0.101-0.58,0.1-0.45,0.399l0.67,1.4c0.21,0.4,0.569,0.701,1.02,0.9l0.54,0.3C250.63,4.899,250.93,4.6,250.8,4.301
	 M253.439,5.4l-0.58-1.4c-0.18-0.4-0.51-0.801-0.949-1l-0.521-0.301c-0.26-0.1-0.58,0.102-0.47,0.4l0.569,1.4
	c0.181,0.5,0.521,0.799,0.96,1.1l0.511,0.201C253.229,6,253.55,5.699,253.439,5.4 M255.989,6.699l-0.47-1.5
	c-0.15-0.399-0.46-0.8-0.89-1.1l-0.49-0.301c-0.26-0.1-0.59,0.102-0.5,0.4l0.47,1.5c0.15,0.4,0.46,0.801,0.881,1.1l0.489,0.301
	C255.74,7.199,256.08,7,255.989,6.699 M258.439,8.1l-0.37-1.4c-0.109-0.5-0.399-0.898-0.8-1.199l-0.47-0.301
	c-0.25-0.199-0.601,0-0.53,0.301l0.37,1.5c0.12,0.399,0.399,0.899,0.8,1.1l0.48,0.4C258.16,8.6,258.51,8.4,258.439,8.1
	 M260.789,9.699l-0.26-1.5c-0.08-0.399-0.34-0.898-0.72-1.199l-0.45-0.301c-0.229-0.199-0.6,0-0.55,0.301l0.271,1.5
	c0.08,0.399,0.33,0.899,0.709,1.199L260.24,10C260.479,10.199,260.84,10,260.789,9.699 M263.029,11.5l-0.16-1.5
	c-0.05-0.5-0.279-0.9-0.64-1.301L261.81,8.4c-0.22-0.301-0.6-0.102-0.57,0.199l0.16,1.5c0.05,0.5,0.28,0.9,0.63,1.301l0.431,0.4
	C262.68,12,263.05,11.801,263.029,11.5 M265.13,13.399l-0.05-1.5c-0.021-0.499-0.221-0.899-0.551-1.3l-0.39-0.4
	c-0.21-0.199-0.601-0.1-0.59,0.2l0.05,1.5c0.02,0.5,0.21,1.001,0.55,1.3l0.39,0.5C264.75,13.899,265.14,13.699,265.13,13.399
	 M267.24,29l-2.101,1.699l2.76-0.199l1.04,2.5l0.63-2.601l2.74-0.2l-2.36-1.5l0.65-2.6l-2.1,1.801l-2.33-1.5L267.24,29L267.24,29z
	 M267.09,15.5l0.05-1.5c0.021-0.5-0.14-1-0.45-1.301l-0.359-0.5c-0.19-0.199-0.59-0.1-0.601,0.2l-0.05,1.5
	c-0.02,0.501,0.14,0.901,0.45,1.3l0.36,0.5C266.68,15.9,267.08,15.799,267.09,15.5 M269.06,16.199c0.06-0.5-0.07-1-0.35-1.398
	l-0.341-0.4c-0.159-0.301-0.569-0.201-0.6,0.1l-0.16,1.5c-0.05,0.5,0.08,1,0.36,1.4l0.33,0.4c0.17,0.299,0.58,0.199,0.61-0.102
	L269.06,16.199L269.06,16.199z M270.83,18.5c0.08-0.5-0.011-0.9-0.271-1.4l-0.29-0.5c-0.16-0.2-0.57-0.2-0.62,0.1l-0.26,1.5
	c-0.09,0.5,0.01,1,0.26,1.4l0.3,0.5c0.15,0.301,0.561,0.199,0.61-0.1L270.83,18.5L270.83,18.5z M272.42,21
	c0.119-0.5,0.06-1-0.16-1.4L272,19.1c-0.141-0.301-0.551-0.301-0.631,0l-0.359,1.5c-0.12,0.4-0.061,0.9,0.16,1.4l0.26,0.5
	c0.14,0.3,0.55,0.199,0.62-0.101L272.42,21L272.42,21z M273.84,23.5c0.15-0.4,0.13-0.9-0.061-1.4l-0.229-0.5
	c-0.12-0.3-0.53-0.3-0.62,0l-0.47,1.4c-0.15,0.5-0.13,1,0.069,1.399L272.75,25c0.119,0.301,0.529,0.199,0.619,0L273.84,23.5
	L273.84,23.5z M275.08,26.199c0.18-0.5,0.189-1,0.029-1.4l-0.189-0.6c-0.09-0.3-0.51-0.3-0.62,0l-0.57,1.4
	c-0.18,0.4-0.19,0.9-0.03,1.4l0.19,0.5c0.101,0.299,0.51,0.4,0.62,0.1L275.08,26.199L275.08,26.199z M276.13,28.899
	c0.21-0.399,0.26-0.899,0.13-1.399l-0.15-0.601c-0.07-0.2-0.49-0.3-0.609,0l-0.67,1.3c-0.211,0.5-0.261,1-0.131,1.4l0.15,0.6
	c0.07,0.301,0.49,0.301,0.61,0.101L276.13,28.899L276.13,28.899z M276.99,31.699c0.239-0.398,0.319-0.9,0.229-1.399l-0.11-0.601
	c-0.06-0.299-0.47-0.299-0.609-0.1l-0.761,1.301c-0.239,0.4-0.319,0.899-0.229,1.398l0.109,0.601c0.061,0.3,0.461,0.4,0.61,0.101
	L276.99,31.699L276.99,31.699z M277.649,34.5c0.271-0.4,0.38-0.801,0.32-1.301l-0.07-0.6c-0.03-0.301-0.43-0.4-0.59-0.199
	l-0.86,1.299c-0.27,0.4-0.38,0.9-0.319,1.4l0.069,0.5c0.041,0.3,0.44,0.4,0.601,0.201L277.649,34.5L277.649,34.5z M278.109,37.399
	c0.301-0.3,0.44-0.8,0.42-1.3l-0.029-0.6c-0.021-0.301-0.4-0.4-0.58-0.201l-0.94,1.201c-0.3,0.4-0.45,0.801-0.42,1.3l0.03,0.601
	c0.01,0.299,0.4,0.499,0.58,0.199L278.109,37.399L278.109,37.399z M278.88,39l0.01-0.5c0.01-0.4-0.37-0.5-0.57-0.301L277.3,39.3
	c-0.32,0.399-0.5,0.899-0.511,1.3l-0.01,0.6c0,0.301,0.37,0.5,0.57,0.301l1.02-1.199C278.689,40,278.869,39.5,278.88,39
	 M279.069,41.4c0.03-0.301-0.33-0.501-0.55-0.301l-1.09,1.1c-0.35,0.301-0.561,0.801-0.6,1.301l-0.051,0.5
	c-0.029,0.299,0.34,0.5,0.551,0.299l1.09-0.998c0.35-0.4,0.56-0.801,0.6-1.301L279.069,41.4L279.069,41.4z"/>
<polygon fill="#00B5CC" points="15.26,43 15.26,40.6 13.08,40.6 15.26,43 "/>
<polygon fill="#00B5CC" points="10.89,43 10.89,40.6 8.72,40.6 10.89,43 "/>
<polygon fill="#00B5CC" points="13.08,43 13.08,40.6 10.899,40.6 13.08,43 "/>
<polygon fill="#00B5CC" points="9.96,38.299 9.96,36.9 8.72,36.9 8.72,38.299 10.89,40.6 10.89,38.299 9.96,38.299 "/>
<polygon fill="#00B5CC" points="13.08,43 15.26,45.3 15.26,43 13.08,43 "/>
<polygon fill="#00B5CC" points="10.619,27.1 10.14,27.6 10.619,28.1 11.1,27.6 10.619,27.1 "/>
<polygon fill="#00B5CC" points="13.08,45.3 15.26,47.6 15.26,45.3 13.08,45.3 "/>
<polygon fill="#00B5CC" points="13.699,35.6 14.939,35.6 14.939,34.301 13.699,34.301 13.699,35.6 "/>
<polygon fill="#00B5CC" points="3.58,28.899 5.029,28.899 4.31,28.1 3.58,28.899 "/>
<path fill="#00B5CC" d="M1.17,23.699l1.449-1.6L1.41,20.801L2.14,20l0.71,0.801H1.88L2.619,21.6l0.971-1l-0.98-1.1h-0.96l0,0
	L1.17,20l-0.49-0.5h0.01H0v0.799L0.199,20l0.73,0.801L0,21.799v0.601l1.14,1.3l-0.479,0.5l0.479,0.5l0.49-0.5L1.17,23.699
	L1.17,23.699z M0.68,22.1l0.49-0.5l0.479,0.5l-0.479,0.6L0.68,22.1L0.68,22.1z"/>
<polygon fill="#00B5CC" points="4.31,20.299 3.819,20.801 4.31,21.3 4.789,20.801 4.31,20.299 "/>
<polygon fill="#00B5CC" points="3.58,19.5 4.31,20.299 5.029,19.5 3.58,19.5 "/>
<polygon fill="#00B5CC" points="0,27.6 0,28 0.43,27.6 0,27.6 "/>
<polygon fill="#00B5CC" points="0,20.801 0,21.3 0.46,20.801 0,20.801 "/>
<path fill="#00B5CC" d="M0,25.899V27l0.18-0.199l0.72,0.799L0,28.6v0.3h0.67H0.66l0.479-0.5l0.49,0.5H1.619H2.59H2.6l-1.21-1.3
	l0.72-0.799l0.71,0.799h-0.96l0.74,0.8l0.97-1.1l-2.43-2.601L0,25.899L0,25.899z M1.14,26.801L0.66,26.299L1.14,25.8l0.49,0.499
	L1.14,26.801L1.14,26.801z"/>
<path fill="#00B5CC" d="M6.75,20.801h-1L6.489,20l0.721,0.801L6,22.1l1.449,1.6l-0.479,0.5l0.49,0.5l0.479-0.5l-0.479-0.5l1.45-1.6
	l-1.211-1.299L8.43,20l0.71,0.801H8.17L8.91,21.6l0.97-1l-0.97-1.1H7.939L7.46,20l-0.49-0.5H6l-0.971,1.1L6,21.6L6.75,20.801
	L6.75,20.801z M7.939,22.1L7.46,22.6l-0.49-0.5l0.49-0.5L7.939,22.1L7.939,22.1z"/>
<polygon fill="#00B5CC" points="8.72,43 10.89,45.3 10.89,43 8.72,43 "/>
<polygon fill="#00B5CC" points="10.899,45.3 13.08,47.6 13.08,45.3 10.899,45.3 "/>
<polygon fill="#00B5CC" points="10.899,43 13.08,45.3 13.08,43 10.899,43 "/>
<polygon fill="#00B5CC" points="8.72,45.3 10.89,47.6 10.89,45.3 8.72,45.3 "/>
<polygon fill="#00B5CC" points="4.31,27.1 3.819,27.6 4.31,28.1 4.789,27.6 4.31,27.1 "/>
<path fill="#00B5CC" d="M4.55,24.199L5.279,23.4l0.711,0.799H5.02L5.76,25l0.97-1.101l-2.42-2.6l-2.42,2.6L2.85,25l0.75-0.801h-1
	L3.34,23.4l0.72,0.799L2.85,25.5l1.46,1.6l1.45-1.6L4.55,24.199L4.55,24.199z M3.819,22.899l0.49-0.5l0.479,0.5L4.31,23.4
	L3.819,22.899L3.819,22.899z M3.819,25.5L4.31,25l0.479,0.5L4.31,26L3.819,25.5L3.819,25.5z"/>
<path fill="#00B5CC" d="M19.609,24.199c2.41,0,4.36-2.1,4.36-4.699h-2.181c0,1.301-0.97,2.4-2.18,2.4c-1.199,0-2.18-1.1-2.18-2.4
	h-2.17C15.26,22.1,17.21,24.199,19.609,24.199L19.609,24.199z"/>
<polygon fill="#00B5CC" points="17.439,43 17.439,40.6 15.26,40.6 17.439,43 "/>
<polygon fill="#00B5CC" points="17.439,45.3 17.439,43 15.26,43 17.439,45.3 "/>
<polygon fill="#00B5CC" points="17.439,47.6 17.439,45.3 15.26,45.3 17.439,47.6 "/>
<path fill="#00B5CC" d="M26.149,19.5c0,3.9-2.93,7.1-6.54,7.1C16,26.6,13.08,23.4,13.08,19.5h-2.19h-1l0.729,0.799L10.91,20
	c0.01,0.199,0.02,0.4,0.05,0.699l-0.341-0.4l-0.479,0.502l0.479,0.499l0.37-0.4c0.05,0.4,0.12,0.7,0.2,1.101l-0.57-0.7l-2.42,2.6
	L9.16,25l0.75-0.801h-1L9.649,23.4l0.73,0.799L9.16,25.5l1.459,1.6l1.45-1.6l-1.21-1.301l0.73-0.799l0.18,0.199
	c0.09,0.201,0.18,0.4,0.28,0.6h-0.72L12.069,25l0.271-0.301c0.199,0.301,0.4,0.602,0.63,0.9l-1.62,1.7l0.97,1.1l0.74-0.8h-1
	l0.74-0.799l0.729,0.799l-1.21,1.3H11.34l-0.721-0.8l-0.72,0.8H8.91l-1.211-1.3l0.73-0.799L9.14,27.6H8.17l0.74,0.8l0.97-1.1
	l-2.42-2.601L5.029,27.3L6,28.399l0.75-0.8h-1l0.739-0.799L7.21,27.6l-1.2,1.3h0.97l0.48-0.5l0.479,0.5h0.78v6.7h2.49v2.699h-0.311
	L13.08,40.6v-2.301l2.18,2.301v-2.301l2.18,2.301v-11.7h-2.22l-1.21-1.3l0.47-0.5c0.22,0.2,0.44,0.3,0.681,0.5h-0.681l0.74,0.8
	l0.46-0.499c1.18,0.6,2.52,0.999,3.93,0.999c4.82,0,8.721-4.2,8.721-9.399H26.149L26.149,19.5z M11.1,25.5l-0.48,0.5l-0.479-0.5
	l0.479-0.5L11.1,25.5L11.1,25.5z M10.619,23.4l-0.479-0.501l0.479-0.5l0.48,0.5L10.619,23.4L10.619,23.4z M6.97,26.299L7.46,25.8
	l0.479,0.499L7.46,26.801L6.97,26.299L6.97,26.299z M13.279,26.299l0.15-0.199c0.16,0.199,0.33,0.4,0.51,0.5l-0.17,0.201
	L13.279,26.299L13.279,26.299z M16.189,30.199V36.9h-3.74v-4.001h2.49v-1.3H11.21v2.701H9.96v-4.102H16.189L16.189,30.199z
	 M14.25,28.899h-0.961l0.48-0.5L14.25,28.899L14.25,28.899z"/>
<polygon fill="#00B5CC" points="13.08,47.6 10.89,47.6 8.72,47.6 8.72,49 13.68,49 9.1,51 9.569,52.301 14.16,50.199 10.649,54 
	11.529,55 15.039,51.199 13.14,56.1 14.289,56.6 16.189,51.699 16.189,57 17.439,57 17.439,47.6 15.26,47.6 13.08,47.6 "/>
<path fill="#00B5CC" d="M150.92,29.299c-0.28,0-0.57,0.102-0.84,0.201l0.51,0.5l0.529-0.5L150.92,29.299L150.92,29.299z"/>
<polygon fill="#00B5CC" points="147.899,41 147.899,41 147.899,41 147.529,41.4 147.529,41.4 147.85,41.801 147.899,41.801 
	147.899,41.801 147.899,41.801 148.26,41.4 148.26,41.4 148.26,41.4 147.899,41 "/>
<polygon fill="#00B5CC" points="157.5,33.6 156.97,33 156.439,33.6 156.97,34.1 157.5,33.6 "/>
<polygon fill="#00B5CC" points="146.489,47.1 147.05,46.5 147.76,46.5 147.76,45.799 147.199,45.199 147.199,44.5 146.6,44.5 
	146.039,45.1 145.33,45.1 145.33,45.699 145.89,46.301 145.89,47.1 146.489,47.1 "/>
<polygon fill="#00B5CC" points="146.6,41.6 146.039,42.199 145.33,42.199 145.33,42.799 145.89,43.399 145.89,44.199 
	146.489,44.199 147.05,43.6 147.76,43.6 147.76,42.9 147.199,42.3 147.199,41.6 146.6,41.6 "/>
<polygon fill="#00B5CC" points="153.16,28.899 153.119,28.899 152.609,29.5 153.14,30 153.67,29.5 153.16,28.899 "/>
<polygon fill="#00B5CC" points="147.899,43.899 147.899,43.899 147.899,43.899 147.529,44.299 147.529,44.299 147.85,44.699 
	147.899,44.699 148.26,44.299 148.26,44.299 148.26,44.299 147.899,43.899 "/>
<polygon fill="#00B5CC" points="147.899,46.8 147.899,46.8 147.899,46.8 147.529,47.199 147.529,47.199 147.85,47.6 147.899,47.6 
	148.26,47.199 148.26,47.199 148.26,47.199 147.899,46.8 "/>
<polygon fill="#00B5CC" points="157.5,36.3 156.97,35.801 156.439,36.3 156.97,36.9 157.5,36.3 "/>
<polygon fill="#00B5CC" points="149.31,41.6 148.739,42.199 148.039,42.199 148.039,42.799 148.59,43.399 148.59,44.199 
	149.189,44.199 149.75,43.6 150.46,43.6 150.46,42.9 149.899,42.3 149.899,41.6 149.31,41.6 "/>
<polygon fill="#00B5CC" points="145.189,41 145.189,41 145.189,41 144.83,41.4 144.83,41.4 145.14,41.801 145.189,41.801 
	145.189,41.801 145.189,41.801 145.55,41.4 145.55,41.4 145.55,41.4 145.189,41 "/>
<polygon fill="#00B5CC" points="151.89,49.8 151.52,48.799 150.63,49.199 151,50.199 151.89,49.8 "/>
<polygon fill="#00B5CC" points="150.81,48.199 150.6,47.6 149.56,47.6 149.92,48.6 150.81,48.199 "/>
<polygon fill="#00B5CC" points="153.14,31.6 153.89,31.6 153.89,30.799 153.89,30 153.14,30 152.39,30 152.39,30.799 152.39,31.6 
	153.14,31.6 "/>
<polygon fill="#00B5CC" points="147.899,38.1 147.899,38.1 147.529,38.5 147.899,38.899 147.899,38.899 147.899,38.899 148.26,38.5 
	147.899,38.1 "/>
<path fill="#00B5CC" d="M149.05,49.6h-0.021l-0.25-0.1l-0.229-0.199l-0.04-0.201h0.01c-0.14-0.199-0.26-0.301-0.359-0.5h-0.011
	l-0.1,0.1l-0.14-0.1c-0.091-0.1-0.16-0.3-0.23-0.5c-0.04-0.1,0-0.2,0.08-0.2h0.01h-0.01l-0.01-0.3h-0.961l0.011,0.1
	c0.09-0.1,0.19,0,0.22,0.102c0.061,0.199,0.13,0.299,0.2,0.499c0.05,0.1,0.02,0.2-0.06,0.2c0.1,0.199,0.229,0.4,0.35,0.6h0.24
	c0.1,0.201,0.21,0.3,0.319,0.4l0.011,0.3c0.159,0.1,0.33,0.3,0.5,0.399l0.229-0.1l0.24,0.199V49.6L149.05,49.6z"/>
<polygon fill="#00B5CC" points="144.83,47.199 144.83,47.199 145.189,47.6 145.55,47.199 145.55,47.199 145.55,47.199 145.189,46.8 
	145.189,46.8 145.189,46.8 144.83,47.199 "/>
<path fill="#00B5CC" d="M149.05,47.6h-0.49l-0.08,0.1c0.08,0.2,0.17,0.4,0.29,0.5H149l0.05,0.101V47.6L149.05,47.6z"/>
<polygon fill="#00B5CC" points="145.189,44.699 145.189,44.699 145.55,44.299 145.55,44.299 145.55,44.299 145.189,43.899 
	145.189,43.899 145.189,43.899 144.83,44.299 144.83,44.299 145.14,44.699 145.189,44.699 "/>
<polygon fill="#00B5CC" points="149.05,48.6 149.05,49.5 149.359,49.399 149.05,48.6 "/>
<path fill="#00B5CC" d="M150.359,46.5c-0.25-0.5-0.449-1.101-0.57-1.699h0.11V44.5h-0.59l-0.57,0.6h-0.7v0.6l0.551,0.602V47.1h0.6
	l0.561-0.6H150.359L150.359,46.5z"/>
<polygon fill="#00B5CC" points="149.91,42 152.52,42 152.52,39.1 149.91,42 "/>
<polygon fill="#00B5CC" points="143.899,38.699 143.34,39.3 142.63,39.3 142.63,39.9 143.189,40.5 143.189,41.299 143.779,41.299 
	144.34,40.699 145.05,40.699 145.05,40 144.489,39.399 144.489,38.699 143.899,38.699 "/>
<polygon fill="#00B5CC" points="146.6,38.699 146.039,39.3 145.33,39.3 145.33,39.9 145.89,40.5 145.89,41.299 146.489,41.299 
	147.05,40.699 147.76,40.699 147.76,40 147.199,39.399 147.199,38.699 146.6,38.699 "/>
<path fill="#00B5CC" d="M141.689,38.699c-0.2,0.7-0.34,1.5-0.43,2.4l0.38-0.4h0.71V40l-0.561-0.601v-0.7H141.689L141.689,38.699z"/>
<polygon fill="#00B5CC" points="155.76,29 155.64,28.899 155.17,29.5 155.689,30 156.22,29.5 155.76,29 "/>
<polygon fill="#00B5CC" points="165.64,42 165.64,39.1 163.02,42 165.64,42 "/>
<polygon fill="#00B5CC" points="143.779,44.199 144.34,43.6 145.05,43.6 145.05,42.9 144.489,42.3 144.489,41.6 143.899,41.6 
	143.34,42.199 142.63,42.199 142.63,42.799 143.189,43.399 143.189,44.199 143.779,44.199 "/>
<path fill="#00B5CC" d="M148.58,54.1l0.22-0.1l0.25,0.199v-0.398l0.12,0.299l0.89-0.5l-0.37-0.9L149.05,53v0.5h-0.011l-0.189-0.1
	c-0.1,0-0.2-0.102-0.3-0.102c-0.09-0.1-0.13-0.199-0.09-0.299h0.01c-0.17-0.101-0.34-0.2-0.5-0.301l0,0l-0.15,0.101h-0.09
	c-0.13-0.101-0.26-0.2-0.39-0.3c-0.08-0.101-0.101-0.199-0.051-0.301h0.011c-0.15-0.1-0.3-0.199-0.45-0.4l0,0l-0.13,0.102
	l-0.11-0.102c-0.12-0.1-0.229-0.199-0.34-0.299l-0.01-0.301h0.01c-0.13-0.199-0.25-0.3-0.37-0.5h-0.01l-0.11,0.102l-0.14-0.102
	c-0.09-0.1-0.18-0.299-0.28-0.4c-0.05-0.1-0.029-0.199,0.051-0.299h0.01c-0.11-0.2-0.21-0.4-0.311-0.601l0,0l-0.09,0.101
	l-0.15-0.101c-0.069-0.2-0.14-0.3-0.209-0.499c-0.041-0.102,0-0.201,0.08-0.301h0.01c-0.101-0.2-0.19-0.5-0.28-0.799l0,0
	l-0.17,0.099l-0.03-0.2l0.01-0.1h-0.66l-0.08,0.1c0.07,0.301,0.15,0.5,0.23,0.7c0.08,0,0.18,0,0.21,0.101
	c0.07,0.199,0.14,0.299,0.21,0.5c0.04,0.1,0.01,0.199-0.07,0.199c0.101,0.2,0.19,0.5,0.291,0.7c0.079-0.1,0.18-0.1,0.229,0
	c0.09,0.2,0.17,0.3,0.26,0.501l-0.03,0.199c0.12,0.201,0.25,0.4,0.381,0.6h0.22c0.1,0.101,0.21,0.301,0.319,0.4V51.9
	c0.141,0.1,0.28,0.299,0.431,0.4h0.24c0.109,0.099,0.239,0.299,0.359,0.398l0.03,0.2c0.17,0.2,0.32,0.3,0.49,0.399h0.24
	c0.13,0.102,0.26,0.201,0.39,0.301c0.08,0,0.11,0.1,0.069,0.201C148.22,53.899,148.399,54,148.58,54.1L148.58,54.1z"/>
<polygon fill="#00B5CC" points="143.779,47.1 144.34,46.5 145.05,46.5 145.05,45.799 144.489,45.199 144.489,44.5 143.899,44.5 
	143.34,45.1 142.63,45.1 142.63,45.699 143.189,46.301 143.189,47.1 143.779,47.1 "/>
<polygon fill="#00B5CC" points="160.41,42 163.02,42 163.02,39.1 160.41,42 "/>
<polygon fill="#00B5CC" points="164.06,38.299 163.109,37.5 163.18,36.199 162.09,35.6 161.91,34.301 160.729,34 160.3,32.699 
	159.09,32.699 158.43,31.6 157.5,31.8 157.5,32.699 158.02,32.6 158.609,33.6 159.71,33.6 160.09,34.699 161.16,35 161.319,36.199 
	162.3,36.699 162.229,37.899 163.1,38.6 162.97,39.1 163.02,39.1 163.85,39.1 164.06,38.299 "/>
<polygon fill="#00B5CC" points="158.859,30.5 159.58,31.8 160.92,31.8 161.39,33.199 162.689,33.5 162.89,35 164.09,35.6 
	164.01,37.1 165.06,38 164.76,39.1 165.64,39.1 165.64,37.301 164.88,36.6 164.97,35.1 163.66,34.399 163.449,32.801 162.029,32.4 
	161.52,30.9 160.06,30.9 159.27,29.5 157.83,29.801 157.5,29.4 157.5,30.699 157.529,30.799 158.859,30.5 "/>
<path fill="#00B5CC" d="M153.16,49.6l0.369,1l0.9-0.4l-0.28-0.8c-0.13,0-0.25,0-0.38-0.099L153.16,49.6L153.16,49.6z"/>
<polygon fill="#00B5CC" points="155.14,42 152.52,44.801 155.14,44.801 155.14,42 "/>
<path fill="#00B5CC" d="M148.63,52.199c0.05-0.1,0.149-0.1,0.229-0.1l0.19,0.1V51.5h-0.011h-0.209
	c-0.101-0.101-0.211-0.101-0.311-0.2c-0.09,0-0.12-0.2-0.08-0.3l0,0c-0.18-0.101-0.34-0.199-0.51-0.301l0,0h-0.141h-0.1
	c-0.14-0.1-0.26-0.199-0.38-0.4L147.3,50h0.01c-0.14-0.101-0.28-0.301-0.399-0.5h-0.011l-0.1,0.1l-0.14-0.1
	c-0.101-0.199-0.19-0.301-0.271-0.5c-0.05-0.1-0.021-0.201,0.06-0.301h0.011c-0.101-0.199-0.181-0.399-0.261-0.6h-0.01h-0.06
	l-0.16-0.1l-0.021-0.101l-0.029-0.2v-0.1h-0.631l0.07,0.1c0.051,0.2,0.11,0.4,0.17,0.5c0.04,0.101,0,0.2-0.08,0.301
	c0.08,0.199,0.17,0.4,0.261,0.5c0.079,0,0.189,0,0.229,0.1c0.08,0.201,0.16,0.3,0.25,0.4l-0.04,0.3c0.11,0.2,0.23,0.3,0.36,0.499
	h0.229c0.101,0.201,0.2,0.301,0.311,0.4L147.06,51c0.14,0.1,0.28,0.199,0.43,0.399l0.23-0.1c0.12,0.1,0.24,0.2,0.37,0.3
	c0.07,0.1,0.1,0.199,0.06,0.301C148.3,52,148.47,52.1,148.63,52.199L148.63,52.199z"/>
<polygon fill="#00B5CC" points="149.91,44.801 152.52,44.801 152.52,42 149.91,44.801 "/>
<polygon fill="#00B5CC" points="149.31,38.699 148.739,39.3 148.039,39.3 148.039,39.9 148.59,40.5 148.59,41.299 149.189,41.299 
	149.75,40.699 150.46,40.699 150.46,40 150.039,39.6 149.99,39.6 150,39.5 149.899,39.399 149.899,38.699 149.31,38.699 "/>
<polygon fill="#00B5CC" points="145.189,38.1 145.189,38.1 144.83,38.5 145.189,38.899 145.189,38.899 145.189,38.899 145.55,38.5 
	145.189,38.1 145.189,38.1 "/>
<polygon fill="#00B5CC" points="155.14,39.1 152.52,42 155.14,42 155.14,39.1 "/>
<polygon fill="#00B5CC" points="165.64,42 163.02,44.801 165.64,44.801 165.64,42 "/>
<path fill="#00B5CC" d="M148.779,35.6c0-0.8-0.56-1.4-1.24-1.4C147.539,35,148.09,35.6,148.779,35.6L148.779,35.6z"/>
<polygon fill="#00B5CC" points="153.14,32.801 152.39,32.801 152.39,33.6 152.39,34.399 153.14,34.399 153.89,34.399 153.89,33.6 
	153.89,32.801 153.14,32.801 "/>
<path fill="#00B5CC" d="M146.289,35.6c0.69,0,1.25-0.6,1.25-1.4C146.85,34.199,146.289,34.8,146.289,35.6L146.289,35.6z"/>
<polygon fill="#00B5CC" points="153.14,31.6 152.609,32.199 153.14,32.801 153.67,32.199 153.14,31.6 "/>
<polygon fill="#00B5CC" points="154.949,33.6 154.949,34.399 155.689,34.399 156.439,34.399 156.439,33.6 156.439,32.801 
	155.689,32.801 154.949,32.801 154.949,33.6 "/>
<path fill="#00B5CC" d="M146.289,35.6c0,0.7,0.561,1.301,1.25,1.301C147.539,36.199,146.979,35.6,146.289,35.6L146.289,35.6z"/>
<polygon fill="#00B5CC" points="151.34,33.6 151.859,34.1 152.39,33.6 151.859,33 151.34,33.6 "/>
<path fill="#00B5CC" d="M147.539,36.9c0.681,0,1.24-0.601,1.24-1.301C148.09,35.6,147.539,36.199,147.539,36.9L147.539,36.9z"/>
<polygon fill="#00B5CC" points="155.689,32.801 156.22,32.199 155.689,31.6 155.17,32.199 155.689,32.801 "/>
<polygon fill="#00B5CC" points="153.89,33.6 154.42,34.1 154.949,33.6 154.42,33 153.89,33.6 "/>
<polygon fill="#00B5CC" points="148.779,30.799 149.31,31.399 149.84,30.799 149.31,30.3 148.779,30.799 "/>
<path fill="#00B5CC" d="M147.539,34.199c0.681,0,1.24-0.6,1.24-1.3C148.09,32.899,147.539,33.5,147.539,34.199L147.539,34.199z"/>
<path fill="#00B5CC" d="M147.539,34.199c0-0.699-0.56-1.3-1.25-1.3C146.289,33.6,146.85,34.199,147.539,34.199L147.539,34.199z"/>
<path fill="#00B5CC" d="M154.949,35.699c0.59,0.102,1.09,0.4,1.49,0.9v-0.3v-0.8h-0.75h-0.74V35.699L154.949,35.699z"/>
<polygon fill="#00B5CC" points="162.039,47.699 161.149,48.1 161.52,49.1 162.41,48.699 162.039,47.699 "/>
<polygon fill="#00B5CC" points="163.109,53 162.74,52 161.85,52.399 162.22,53.299 163.109,53 "/>
<polygon fill="#00B5CC" points="153.14,35.5 153.67,35 153.14,34.399 152.609,35 153.14,35.5 "/>
<path fill="#00B5CC" d="M148.779,32.899c0-0.7-0.56-1.3-1.24-1.3C147.539,32.299,148.09,32.899,148.779,32.899L148.779,32.899z"/>
<polygon fill="#00B5CC" points="155.689,35.5 156.22,35 155.689,34.399 155.17,35 155.689,35.5 "/>
<polygon fill="#00B5CC" points="148.779,33.6 149.31,34.1 149.84,33.6 149.31,33 148.779,33.6 "/>
<polygon fill="#00B5CC" points="154.949,30.799 154.42,30.3 153.89,30.799 154.42,31.399 154.949,30.799 "/>
<polygon fill="#00B5CC" points="150.59,34.399 150.06,35 150.59,35.5 151.119,35 150.59,34.399 "/>
<polygon fill="#00B5CC" points="148.779,36.3 149.31,36.9 149.84,36.3 149.31,35.801 148.779,36.3 "/>
<polygon fill="#00B5CC" points="151.34,33.6 151.34,32.801 150.59,32.801 149.84,32.801 149.84,33.6 149.84,34.399 150.59,34.399 
	151.34,34.399 151.34,33.6 "/>
<path fill="#00B5CC" d="M152.119,36l-0.26-0.199l-0.52,0.499l0.16,0.2C151.689,36.3,151.89,36.199,152.119,36L152.119,36z"/>
<path fill="#00B5CC" d="M150.439,38.1c0.1-0.3,0.23-0.5,0.37-0.7l-0.22-0.3l-0.53,0.6L150.439,38.1L150.439,38.1z"/>
<polygon fill="#00B5CC" points="164.569,51.799 164.199,50.801 163.31,51.199 163.68,52.199 164.569,51.799 "/>
<polygon fill="#00B5CC" points="152.39,30.799 151.859,30.3 151.34,30.799 151.859,31.399 152.39,30.799 "/>
<polygon fill="#00B5CC" points="160.41,44.801 163.02,44.801 163.02,42 160.41,44.801 "/>
<polygon fill="#00B5CC" points="161.66,50.4 160.77,50.801 161.14,51.799 162.029,51.399 161.66,50.4 "/>
<polygon fill="#00B5CC" points="150.59,31.6 150.06,32.199 150.59,32.801 151.119,32.199 150.59,31.6 "/>
<polygon fill="#00B5CC" points="151.34,30.799 151.34,30 150.59,30 149.84,30 149.84,30.799 149.84,31.6 150.59,31.6 151.34,31.6 
	151.34,30.799 "/>
<path fill="#00B5CC" d="M142.27,36.9c0.09,0,0.19,0,0.29,0c0-0.201-0.04-0.301-0.1-0.501C142.399,36.6,142.33,36.699,142.27,36.9
	L142.27,36.9z"/>
<path fill="#00B5CC" d="M148.779,38.299c0-0.799-0.56-1.398-1.24-1.398C147.539,37.699,148.09,38.299,148.779,38.299L148.779,38.299
	z"/>
<path fill="#00B5CC" d="M148.779,30.199c-0.689,0-1.24,0.6-1.24,1.4C148.22,31.6,148.779,31,148.779,30.199L148.779,30.199z"/>
<polygon fill="#00B5CC" points="157.5,30.799 156.97,30.3 156.439,30.799 156.97,31.399 157.5,30.799 "/>
<polygon fill="#00B5CC" points="163.119,49.301 162.229,49.699 162.6,50.6 163.49,50.199 163.119,49.301 "/>
<path fill="#00B5CC" d="M149.84,36.3v0.8h0.75h0.37c0.12-0.1,0.239-0.301,0.38-0.4V36.3v-0.8h-0.75h-0.75V36.3L149.84,36.3z"/>
<path fill="#00B5CC" d="M146.289,38.299c0.69,0,1.25-0.6,1.25-1.398C146.85,36.9,146.289,37.5,146.289,38.299L146.289,38.299z"/>
<polygon fill="#00B5CC" points="155.689,31.6 156.439,31.6 156.439,30.799 156.439,30 155.689,30 154.949,30 154.949,30.799 
	154.949,31.6 155.689,31.6 "/>
<path fill="#00B5CC" d="M143.02,35.299c0.221,0.201,0.49,0.301,0.78,0.301c0-0.4-0.15-0.7-0.38-1
	C143.279,34.8,143.149,35.1,143.02,35.299L143.02,35.299z"/>
<path fill="#00B5CC" d="M146.649,31.199c0.23,0.2,0.54,0.4,0.89,0.4c0-0.299-0.1-0.6-0.26-0.801
	C147.06,30.9,146.85,31,146.649,31.199L146.649,31.199z"/>
<path fill="#00B5CC" d="M148.369,30.199c0.131,0,0.271,0,0.41,0L148.76,30C148.63,30,148.5,30.1,148.369,30.199L148.369,30.199z"/>
<path fill="#00B5CC" d="M145.8,31.8c-0.19,0.2-0.36,0.399-0.53,0.499c0.221,0.4,0.6,0.601,1.02,0.601
	C146.289,32.5,146.09,32.1,145.8,31.8L145.8,31.8z"/>
<path fill="#00B5CC" d="M147.539,31.6c-0.689,0-1.25,0.6-1.25,1.3C146.979,32.899,147.539,32.299,147.539,31.6L147.539,31.6z"/>
<polygon fill="#00B5CC" points="152.6,54.1 152.229,53.1 151.33,53.5 151.699,54.5 152.6,54.1 "/>
<path fill="#00B5CC" d="M141.84,38.1c0.42-0.2,0.72-0.6,0.72-1.199c-0.11,0-0.22,0-0.32,0.1
	C142.09,37.399,141.96,37.699,141.84,38.1L141.84,38.1z"/>
<path fill="#00B5CC" d="M143.8,38.299c0-0.799-0.56-1.398-1.24-1.398C142.56,37.699,143.109,38.299,143.8,38.299L143.8,38.299z"/>
<polygon fill="#00B5CC" points="151.52,52.5 151.149,51.5 150.25,51.9 150.619,52.899 151.52,52.5 "/>
<polygon fill="#00B5CC" points="150.069,50 149.17,50.4 149.539,51.3 150.439,50.899 150.069,50 "/>
<polygon fill="#00B5CC" points="142.13,47.199 142.119,47.199 142.49,47.6 142.49,47.6 142.85,47.199 142.49,46.8 142.49,46.8 
	142.49,46.8 142.49,46.8 142.13,47.199 "/>
<polygon fill="#00B5CC" points="142.49,41.801 142.49,41.801 142.49,41.801 142.85,41.4 142.49,41 142.49,41 142.49,41 142.13,41.4 
	142.119,41.4 142.439,41.801 142.49,41.801 "/>
<polygon fill="#00B5CC" points="142.49,38.1 142.49,38.1 142.13,38.5 142.49,38.899 142.49,38.899 142.49,38.899 142.85,38.5 
	142.49,38.1 142.49,38.1 "/>
<polygon fill="#00B5CC" points="142.13,44.299 142.119,44.299 142.439,44.699 142.49,44.699 142.49,44.699 142.85,44.299 
	142.49,43.899 142.49,43.899 142.49,43.899 142.13,44.299 "/>
<polygon fill="#00B5CC" points="152.6,50.4 151.71,50.801 152.08,51.699 152.97,51.3 152.6,50.4 "/>
<polygon fill="#00B5CC" points="157.5,37.899 158.08,38 158.17,38.699 158.71,39 158.699,39.1 159.55,39.1 159.59,38.4 
	158.939,38.1 158.83,37.301 158.119,37.1 157.869,36.399 157.5,36.3 157.5,37.899 "/>
<path fill="#00B5CC" d="M145.039,34.301c0.021,0.699,0.57,1.299,1.25,1.299c0-0.8-0.55-1.4-1.239-1.4c0.689,0,1.239-0.6,1.239-1.3
	c-0.68,0-1.229,0.601-1.25,1.3c0-0.4-0.22-0.8-0.539-1.1c-0.15,0.2-0.311,0.4-0.45,0.6c0.22,0.301,0.59,0.5,0.989,0.5
	c-0.68,0-1.239,0.601-1.239,1.4C144.479,35.6,145.029,35,145.039,34.301L145.039,34.301z"/>
<polygon fill="#00B5CC" points="157.789,44.801 157.789,42 155.18,44.801 157.789,44.801 "/>
<polygon fill="#00B5CC" points="156.59,53.299 156.22,52.301 155.319,52.699 155.689,53.699 156.59,53.299 "/>
<polygon fill="#00B5CC" points="157.789,42 157.789,39.1 155.18,42 157.789,42 "/>
<polygon fill="#00B5CC" points="156.069,51 156.96,50.6 156.59,49.6 155.699,50 156.069,51 "/>
<polygon fill="#00B5CC" points="159.13,50 158.229,50.4 158.609,51.399 159.5,51 159.13,50 "/>
<polygon fill="#00B5CC" points="157.67,54.9 157.3,53.899 156.399,54.3 156.77,55.301 157.67,54.9 "/>
<polygon fill="#00B5CC" points="160.58,52.5 160.21,51.6 159.319,52 159.68,52.899 160.58,52.5 "/>
<polygon fill="#00B5CC" points="159.119,53.699 158.75,52.699 157.859,53.1 158.229,54.1 159.119,53.699 "/>
<polygon fill="#00B5CC" points="157.67,51.199 156.779,51.6 157.149,52.5 158.039,52.1 157.67,51.199 "/>
<polygon fill="#00B5CC" points="161.66,54.1 161.289,53.1 160.39,53.5 160.76,54.5 161.66,54.1 "/>
<polygon fill="#00B5CC" points="160.41,42 160.41,39.1 157.789,42 160.41,42 "/>
<polygon fill="#00B5CC" points="154.05,52.899 153.68,51.9 152.789,52.301 153.16,53.299 154.05,52.899 "/>
<polygon fill="#00B5CC" points="155.13,54.5 154.76,53.5 153.869,53.899 154.239,54.9 155.13,54.5 "/>
<path fill="#00B5CC" d="M145.039,36.9L145.039,36.9c-0.68,0-1.239,0.6-1.239,1.398c0.68,0,1.229-0.6,1.239-1.299
	c0.021,0.699,0.57,1.299,1.25,1.299c0-0.799-0.55-1.398-1.239-1.398c0.689,0,1.239-0.601,1.239-1.301
	C145.609,35.6,145.06,36.199,145.039,36.9c-0.01-0.701-0.56-1.301-1.239-1.301C143.8,36.3,144.359,36.9,145.039,36.9L145.039,36.9z"
	/>
<path fill="#00B5CC" d="M143.8,35.6c-0.69,0-1.24,0.6-1.24,1.301C143.24,36.9,143.8,36.3,143.8,35.6L143.8,35.6z"/>
<polygon fill="#00B5CC" points="155.14,50.801 154.239,51.199 154.619,52.1 155.51,51.699 155.14,50.801 "/>
<path fill="#00B5CC" d="M157.529,49.8l0.891-0.4l-0.061-0.099c-0.32,0-0.63,0.099-0.96,0.199L157.529,49.8L157.529,49.8z"/>
<polygon fill="#00B5CC" points="160.949,49.8 160.58,48.9 159.689,49.301 160.06,50.199 160.949,49.8 "/>
<polygon fill="#00B5CC" points="160.52,36.799 160.369,35.801 159.43,35.5 159.09,34.5 158.109,34.5 157.59,33.6 157.5,33.6 
	157.5,35.199 157.63,35.4 158.489,35.4 158.789,36.3 159.619,36.5 159.74,37.399 160.51,37.8 160.449,38.801 160.89,39.1 
	162.05,39.1 162.09,39 161.33,38.299 161.39,37.301 160.52,36.799 "/>
<polygon fill="#00B5CC" points="160.41,42 157.789,44.801 160.41,44.801 160.41,42 "/>
<path fill="#00B5CC" d="M142.35,45.799l-0.561-0.6V44.5h-0.56c0.07,0.699,0.181,1.4,0.34,2.1l0.07-0.1h0.71V45.799L142.35,45.799z"
	/>
<path fill="#00B5CC" d="M142.35,43.6V42.9l-0.561-0.601v-0.7h-0.579c-0.03,0.4-0.05,0.9-0.05,1.4c0,0.301,0.01,0.699,0.039,1
	l0.44-0.4H142.35L142.35,43.6z"/>
<path fill="#00B5CC" d="M149.05,55.5v-0.101l0,0h-0.011h-0.18c-0.109-0.099-0.22-0.099-0.32-0.2c-0.09,0-0.129-0.1-0.09-0.199v-0.1
	c-0.189,0-0.369-0.102-0.539-0.201l0,0l-0.15,0.1l-0.08-0.1c-0.15-0.1-0.29-0.1-0.42-0.199c-0.09-0.101-0.11-0.2-0.061-0.301l0,0
	c-0.17-0.1-0.34-0.3-0.5-0.398l0,0l-0.14,0.099h-0.11c-0.119-0.2-0.25-0.3-0.38-0.399l-0.02-0.301l0,0
	c-0.15-0.1-0.311-0.3-0.45-0.399l0,0h-0.13h-0.12c-0.11-0.101-0.23-0.3-0.34-0.4l0.01-0.3l0,0c-0.13-0.199-0.26-0.301-0.39-0.5l0,0
	h-0.11h-0.13c-0.101-0.2-0.2-0.3-0.29-0.5l0.04-0.299l0,0c-0.11-0.201-0.22-0.301-0.33-0.502l0,0h-0.09l-0.14-0.1
	c-0.091-0.199-0.16-0.3-0.24-0.5c-0.04-0.1-0.01-0.199,0.07-0.3h0.01c-0.09-0.2-0.18-0.399-0.26-0.601l0,0h-0.07l-0.16-0.1
	c-0.061-0.199-0.12-0.3-0.18-0.5c-0.03-0.1,0.02-0.199,0.109-0.3l0,0l-0.05-0.099L142.8,47.6h-0.94c0.07,0.3,0.15,0.5,0.23,0.7
	c0.09,0,0.18,0,0.22,0.1c0.06,0.2,0.12,0.399,0.19,0.501c0.029,0.1,0,0.199-0.09,0.299c0.09,0.2,0.17,0.4,0.26,0.601
	c0.08-0.101,0.189,0,0.229,0.1c0.08,0.101,0.15,0.3,0.23,0.399c0.05,0.102,0.02,0.201-0.05,0.301c0.1,0.201,0.199,0.4,0.3,0.5
	l0.239,0.1c0.091,0.101,0.181,0.301,0.271,0.4l-0.03,0.301c0.12,0.199,0.24,0.299,0.36,0.499h0.24c0.109,0.101,0.21,0.3,0.31,0.4
	v0.3c0.141,0.1,0.27,0.301,0.41,0.4h0.24c0.109,0.1,0.229,0.199,0.34,0.399l0.029,0.2c0.15,0.2,0.301,0.3,0.451,0.4h0.239
	c0.12,0.1,0.25,0.199,0.37,0.299c0.08,0,0.1,0.201,0.05,0.301c0.16,0.1,0.32,0.201,0.49,0.3c0.05-0.099,0.149-0.099,0.229-0.099
	c0.131,0.099,0.271,0.199,0.4,0.299c0.08,0,0.12,0.1,0.08,0.2c0.17,0.1,0.34,0.2,0.51,0.3c0.04-0.1,0.141-0.1,0.23-0.1l0.21,0.1v0.1
	c0.18,0.1,0.36,0.1,0.54,0.201h0.09l-0.37-1.001L149.05,55.5L149.05,55.5z"/>
<path fill="#00B5CC" d="M160.01,56.299l0.16,0.4c0.31-0.1,0.619-0.199,0.93-0.299l-0.189-0.501L160.01,56.299L160.01,56.299z"/>
<polygon fill="#00B5CC" points="161.47,55.1 161.84,56.1 161.97,56 162.52,55.8 162.729,55.699 162.369,54.699 161.47,55.1 "/>
<polygon fill="#00B5CC" points="159.83,54.3 158.939,54.699 159.31,55.699 160.199,55.301 159.83,54.3 "/>
<polygon fill="#00B5CC" points="157.479,55.899 157.85,56.801 158.75,56.4 158.369,55.5 157.479,55.899 "/>
<polygon fill="#00B5CC" points="165.279,52.399 164.38,52.8 164.76,53.801 165.649,53.4 165.279,52.399 "/>
<polygon fill="#00B5CC" points="162.93,54 163.3,54.9 164.189,54.5 163.819,53.6 162.93,54 "/>
<polygon fill="#00B5CC" points="155.84,55.1 154.949,55.5 155.319,56.4 156.21,56 155.84,55.1 "/>
<path fill="#00B5CC" d="M150.949,56.199l0.29,0.7C151.369,57,151.5,57,151.63,57l0.59-0.199l-0.37-1.001L150.949,56.199
	L150.949,56.199z"/>
<polygon fill="#00B5CC" points="153.31,54.699 152.41,55.1 152.779,56 153.67,55.6 153.31,54.699 "/>
<polygon fill="#00B5CC" points="150.77,54.3 149.88,54.699 150.25,55.6 151.14,55.199 150.77,54.3 "/>
<polygon fill="#00B5CC" points="156.02,57 156.13,57.3 157.16,57.3 157.17,57.3 156.92,56.6 156.02,57 "/>
<polygon fill="#00B5CC" points="153.489,56.6 153.75,57.3 154.51,57.3 154.75,57.199 154.38,56.199 153.489,56.6 "/>
<polygon fill="#00B5CC" points="127.56,39.9 119.83,28.899 118.52,28.899 128.81,43.5 127.56,39.9 "/>
<polygon fill="#00B5CC" points="125.06,32.5 122.47,28.899 121.149,28.899 126.31,36.199 125.06,32.5 "/>
<polygon fill="#00B5CC" points="142.18,28.899 132.88,28.899 132.55,30.199 141.729,30.199 142.18,28.899 "/>
<polygon fill="#00B5CC" points="123.8,28.899 123.789,28.899 123.819,28.899 123.8,28.899 "/>
<path fill="#00B5CC" d="M130.06,40.1h0.72v-1.9h1.75v1.9h-1.75V42h-1.18c-0.13,0.5-0.27,1.199-0.4,1.8h1.58v1.899h-1.74l-11.84-16.8
	h-0.01h-1.32l13.16,18.7h1.17l0,0h0.58v-1.9h1.75v1.9h1.74v-1.9h1.74V43.8h1.01l0.65-1.8h-1.66v-1.9h-1.74v-1.9h1.74v1.9h1.75v-1.9
	h1.2l0.46-1.299h-8.551L130.06,40.1L130.06,40.1z M134.27,43.8h-1.74V42h1.74V43.8L134.27,43.8z"/>
<polygon fill="#00B5CC" points="131.199,35.5 139.88,35.5 140.34,34.199 131.539,34.199 131.199,35.5 "/>
<polygon fill="#00B5CC" points="134.27,49.5 135.09,49.5 135.729,47.6 134.27,47.6 134.27,49.5 "/>
<polygon fill="#00B5CC" points="131.88,32.801 140.8,32.801 141.27,31.5 132.22,31.5 131.88,32.801 "/>
<path fill="#00B5CC" d="M132.18,48.9l-1.42,0.499l0.21-1.8l-1.22,1.301c-0.66,0.699-0.66,1.9,0,2.6h-1.431v1.6h1.44v-1.6
	c0.67,0.699,1.75,0.699,2.42,0l1.21-1.301l-1.61,0.201L132.18,48.9L132.18,48.9z"/>
<polygon fill="#00B5CC" points="123.189,66.399 123.189,64.1 121.01,64.1 123.189,66.399 "/>
<path fill="#00B5CC" d="M121.75,67.199c0.479,0,0.96-0.1,1.439-0.199v-0.601h-2.18L121.75,67.199L121.75,67.199z"/>
<polygon fill="#00B5CC" points="121.01,61.699 123.189,64.1 123.189,61.699 121.01,61.699 "/>
<path fill="#00B5CC" d="M129.75,53.1c-0.66,0.701-0.66,1.9,0,2.6L130.97,57l-0.21-1.699l1.42,0.398l-0.4-1.5l1.61,0.2l-1.21-1.3
	C131.51,52.399,130.42,52.399,129.75,53.1L129.75,53.1z"/>
<path fill="#00B5CC" d="M124.1,58l1.27,1.4l0,0h-2.18l2.18,2.299l0,0h-2.18l2.18,2.4h-2.18l2.18,2.3c0.801-0.3,1.58-0.8,2.311-1.3
	h-1.061v-6.7h5.4l0.46-1.399h-7.83C124.49,57.399,124.31,57.699,124.1,58L124.1,58z"/>
<path fill="#00B5CC" d="M121.199,59.6l1.99,2.1V59.4h-0.99C121.859,59.5,121.52,59.5,121.199,59.6L121.199,59.6z"/>
<path fill="#00B5CC" d="M125.369,66.399h-2.18l0.5,0.501C124.26,66.799,124.819,66.6,125.369,66.399L125.369,66.399z"/>
<polygon fill="#00B5CC" points="121.01,66.399 121.01,64.1 118.84,64.1 121.01,66.399 "/>
<polygon fill="#00B5CC" points="126.39,47.6 127.71,47.6 115.08,29.6 115.08,29.6 116.529,33.6 126.39,47.6 "/>
<path fill="#00B5CC" d="M128.31,55.699c0.67-0.699,0.67-1.898,0-2.6c-0.67-0.7-1.76-0.7-2.42,0l-1.18,1.2l0.02,0.1l1.56-0.2
	l-0.399,1.5l1.41-0.398L127.1,57L128.31,55.699L128.31,55.699z"/>
<polygon fill="#00B5CC" points="125.069,47.6 117.979,37.5 119.43,41.4 123.75,47.6 125.069,47.6 "/>
<path fill="#00B5CC" d="M119.42,67c0.5,0.1,1.04,0.199,1.59,0.199v-0.8h-2.17L119.42,67L119.42,67z"/>
<path fill="#00B5CC" d="M128.31,48.9L127.1,47.6l0.2,1.8l-1.41-0.499l0.399,1.5l-1.619-0.201l1.22,1.301
	c0.67,0.801,1.75,0.801,2.42,0C128.979,50.801,128.979,49.6,128.31,48.9L128.31,48.9z"/>
<path fill="#00B5CC" d="M119.52,59.4h-0.68l2.17,2.299v-2.1c-0.12,0-0.25,0-0.37,0C120.26,59.6,119.869,59.5,119.52,59.4
	L119.52,59.4z"/>
<polygon fill="#00B5CC" points="121.01,64.1 121.01,61.699 118.84,61.699 121.01,64.1 "/>
<polygon fill="#00B5CC" points="116.739,61.8 118.84,64.1 118.84,61.699 116.77,61.699 116.739,61.8 "/>
<polygon fill="#00B5CC" points="117.399,60.199 118.84,61.699 118.84,59.4 117.71,59.4 117.399,60.199 "/>
<polygon fill="#00B5CC" points="122.43,47.6 120.88,45.399 121.699,47.6 122.43,47.6 "/>
<path fill="#00B5CC" d="M127.859,63.699h1.26c0.94-1,1.771-2.398,2.42-4h-3.68V63.699L127.859,63.699z"/>
<path fill="#00B5CC" d="M118.84,66.9v-0.501h-1.48C117.8,66.6,118.289,66.799,118.84,66.9L118.84,66.9z"/>
<path fill="#00B5CC" d="M115.42,65.1l0.649,0.701c0.171,0.099,0.37,0.199,0.58,0.299v-2h-0.819L115.42,65.1L115.42,65.1z"/>
<polygon fill="#00B5CC" points="118.84,66.399 118.84,64.1 116.649,64.1 118.84,66.399 "/>
<polygon fill="#00B5CC" points="116.08,63.399 116.649,64.1 116.649,62 116.08,63.399 "/>
<path fill="#00B5CC" d="M67.58,31.699L65.97,31.5l1.21,1.301c0.67,0.699,1.75,0.699,2.42,0c0.67-0.701,0.67-1.9,0-2.602l-1.21-1.3
	l0.2,1.7l-1.41-0.4L67.58,31.699L67.58,31.699z"/>
<path fill="#00B5CC" d="M63.31,57h1.9v-0.801h0.76v-2h-2.66V57L63.31,57z M63.689,54.6h1.9v1.2h-1.141v-0.4h0.761V55h-1.141v1.199
	h0.761v0.4h-1.141V54.6L63.689,54.6z"/>
<polygon fill="#00B5CC" points="58.76,52.1 58.38,52.1 58.38,51.699 58,51.699 58,52.899 58.38,52.899 58.38,52.5 58.76,52.5 
	58.76,52.899 59.14,52.899 59.14,51.699 58.76,51.699 58.76,52.1 "/>
<polygon fill="#00B5CC" points="65.59,57 65.97,57 65.97,56.6 65.59,56.6 65.59,57 "/>
<polygon fill="#00B5CC" points="62.56,53.801 62.93,53.801 62.93,53.4 62.56,53.4 62.56,53.801 "/>
<polygon fill="#00B5CC" points="64.449,52.5 64.83,52.5 64.83,52.899 65.21,52.899 65.21,51.699 64.83,51.699 64.83,52.1 
	64.449,52.1 64.449,51.699 64.069,51.699 64.069,52.899 64.449,52.899 64.449,52.5 "/>
<polygon fill="#00B5CC" points="61.039,55.399 61.42,55.399 61.42,55.8 61.039,55.8 61.039,56.199 62.18,56.199 62.18,55.8 
	61.8,55.8 61.8,55.399 62.18,55.399 62.18,55 61.039,55 61.039,55.399 "/>
<polygon fill="#00B5CC" points="61.039,48.9 61.42,48.9 61.42,49.301 61.039,49.301 61.039,49.699 62.18,49.699 62.18,49.301 
	61.8,49.301 61.8,48.9 62.18,48.9 62.18,48.5 61.039,48.5 61.039,48.9 "/>
<path fill="#00B5CC" d="M63.31,51.699h-1.13V50.5h0.75v-2.9h-2.65v2.9h0.76v1.199h-1.14v-0.8H57.25v2.901h2.649v-0.901h1.14v1.3
	h-0.76v2.4V57h2.65v-2.801h-0.75v-1.3h1.13v0.901h2.66v-2.901h-2.66V51.699L63.31,51.699z M59.52,52.5v0.9h-1.89V51.3h1.89v0.8h1.52
	v0.4H59.52L59.52,52.5z M62.55,54.6v2h-1.89v-2h0.76v-1.7h0.38v1.7H62.55L62.55,54.6z M61.42,52.5v-0.4h0.38v0.4H61.42L61.42,52.5z
	 M61.8,50.1v1.6h-0.38v-1.6h-0.76v-2h1.89v2H61.8L61.8,50.1z M63.689,51.3h1.9V53.4h-1.9v-0.9h-1.51v-0.4h1.51V51.3L63.689,51.3z"/>
<path fill="#00B5CC" d="M63.31,47.6v2.9h2.66v-2h-0.76v-0.9H63.31L63.31,47.6z M65.59,48.9V50.1h-1.9v-2h1.141v0.4h-0.761v1.199
	h1.141v-0.398h-0.761v-0.4H65.59L65.59,48.9z"/>
<polygon fill="#00B5CC" points="60.66,50.899 60.279,50.899 60.279,51.3 60.66,51.3 60.66,50.899 "/>
<path fill="#00B5CC" d="M57.25,56.199h0.76V57h1.89v-2.801H57.25V56.199L57.25,56.199z M57.63,54.6h1.89v2h-1.13v-0.4h0.75V55h-1.13
	v0.399h0.75v0.4h-1.13V54.6L57.63,54.6z"/>
<path fill="#00B5CC" d="M65.97,38.299c-1.21,0-2.19,1.001-2.19,2.301C64.989,40.6,65.97,39.6,65.97,38.299L65.97,38.299z"/>
<polygon fill="#00B5CC" points="57.25,57 57.63,57 57.63,56.6 57.25,56.6 57.25,57 "/>
<path fill="#00B5CC" d="M58.01,48.5h-0.76v2h2.649v-2.9h-1.89V48.5L58.01,48.5z M58.39,48.1h1.13v2h-1.89V48.9h1.13v0.4h-0.75v0.398
	h1.13V48.5h-0.75V48.1L58.39,48.1z"/>
<polygon fill="#00B5CC" points="62.56,51.3 62.93,51.3 62.93,50.899 62.56,50.899 62.56,51.3 "/>
<polygon fill="#00B5CC" points="60.66,53.4 60.279,53.4 60.279,53.801 60.66,53.801 60.66,53.4 "/>
<path fill="#00B5CC" d="M73.47,34.399c-0.67-0.8-1.75-0.8-2.42,0c-0.67,0.7-0.67,1.8,0,2.601l1.21,1.299L72.05,36.5l1.42,0.5
	l-0.4-1.6l1.61,0.299L73.47,34.399L73.47,34.399z"/>
<path fill="#00B5CC" d="M61.609,38.299c0,1.301,0.971,2.301,2.17,2.301C63.779,39.3,62.81,38.299,61.609,38.299L61.609,38.299z"/>
<path fill="#00B5CC" d="M67.18,34.399l-1.21,1.3l1.61-0.299l-0.4,1.6l1.41-0.5l-0.2,1.799L69.6,37c0.67-0.801,0.67-1.9,0-2.601
	C68.93,33.6,67.85,33.6,67.18,34.399L67.18,34.399z"/>
<polygon fill="#00B5CC" points="61.6,36.6 60.96,36.6 60.96,35.899 60.5,36.399 60.05,35.899 60.05,36.6 59.41,36.6 59.869,37.1 
	59.41,37.6 60.05,37.6 60.05,38.299 60.5,37.8 60.96,38.299 60.96,37.6 61.6,37.6 61.149,37.1 61.6,36.6 "/>
<path fill="#00B5CC" d="M59.43,40.6c-1.21,0-2.18,1.1-2.18,2.4C58.449,43,59.43,41.899,59.43,40.6L59.43,40.6z"/>
<polygon fill="#00B5CC" points="59.41,30.6 60.05,30.6 60.05,31.199 60.5,30.799 60.96,31.199 60.96,30.6 61.6,30.6 61.149,30.1 
	61.6,29.6 60.96,29.6 60.96,28.899 60.5,29.4 60.05,28.899 60.05,29.6 59.41,29.6 59.869,30.1 59.41,30.6 "/>
<polygon fill="#00B5CC" points="58.77,35.899 58.77,35.199 59.41,35.199 58.96,34.8 59.41,34.301 58.77,34.301 58.77,33.6 
	58.319,34.1 57.869,33.6 57.869,34.301 57.229,34.301 57.68,34.8 57.229,35.199 57.869,35.199 57.869,35.899 58.319,35.5 
	58.77,35.899 "/>
<polygon fill="#00B5CC" points="58.77,31.199 58.77,30.6 59.41,30.6 58.96,30.1 59.41,29.6 58.77,29.6 58.77,28.899 58.319,29.4 
	57.869,28.899 57.869,29.6 57.229,29.6 57.68,30.1 57.229,30.6 57.869,30.6 57.869,31.199 58.319,30.799 58.77,31.199 "/>
<polygon fill="#00B5CC" points="58.77,33.6 58.77,32.899 59.41,32.899 58.96,32.4 59.41,31.899 58.77,31.899 58.77,31.199 
	58.319,31.699 57.869,31.199 57.869,31.899 57.229,31.899 57.68,32.4 57.229,32.899 57.869,32.899 57.869,33.6 58.319,33.1 
	58.77,33.6 "/>
<polygon fill="#00B5CC" points="57.869,37.6 57.869,38.299 58.319,37.8 58.77,38.299 58.77,37.6 59.41,37.6 58.96,37.1 59.41,36.6 
	58.77,36.6 58.77,35.899 58.319,36.399 57.869,35.899 57.869,36.6 57.229,36.6 57.68,37.1 57.229,37.6 57.869,37.6 "/>
<polygon fill="#00B5CC" points="65.59,48.1 65.97,48.1 65.97,47.6 65.59,47.6 65.59,48.1 "/>
<polygon fill="#00B5CC" points="63.779,30.6 64.42,30.6 64.42,31.199 64.869,30.799 65.33,31.199 65.33,30.6 65.97,30.6 65.51,30.1 
	65.97,29.6 65.33,29.6 65.33,28.899 64.869,29.4 64.42,28.899 64.42,29.6 63.779,29.6 64.229,30.1 63.779,30.6 "/>
<polygon fill="#00B5CC" points="64.42,35.899 64.42,36.6 63.779,36.6 64.229,37.1 63.779,37.6 64.42,37.6 64.42,38.299 64.869,37.8 
	65.33,38.299 65.33,37.6 65.97,37.6 65.51,37.1 65.97,36.6 65.33,36.6 65.33,35.899 64.869,36.399 64.42,35.899 "/>
<polygon fill="#00B5CC" points="63.779,36.6 63.14,36.6 63.14,35.899 62.689,36.399 62.24,35.899 62.24,36.6 61.6,36.6 62.05,37.1 
	61.6,37.6 62.24,37.6 62.24,38.299 62.689,37.8 63.14,38.299 63.14,37.6 63.779,37.6 63.33,37.1 63.779,36.6 "/>
<polygon fill="#00B5CC" points="64.42,33.6 64.42,34.301 63.779,34.301 64.229,34.8 63.779,35.199 64.42,35.199 64.42,35.899 
	64.869,35.5 65.33,35.899 65.33,35.199 65.97,35.199 65.51,34.8 65.97,34.301 65.33,34.301 65.33,33.6 64.869,34.1 64.42,33.6 "/>
<polygon fill="#00B5CC" points="61.6,30.6 62.24,30.6 62.24,31.199 62.689,30.799 63.14,31.199 63.14,30.6 63.779,30.6 63.33,30.1 
	63.779,29.6 63.14,29.6 63.14,28.899 62.689,29.4 62.24,28.899 62.24,29.6 61.6,29.6 62.05,30.1 61.6,30.6 "/>
<polygon fill="#00B5CC" points="64.42,31.199 64.42,31.899 63.779,31.899 64.229,32.4 63.779,32.899 64.42,32.899 64.42,33.6 
	64.869,33.1 65.33,33.6 65.33,32.899 65.97,32.899 65.51,32.4 65.97,31.899 65.33,31.899 65.33,31.199 64.869,31.699 64.42,31.199 
	"/>
<path fill="#00B5CC" d="M65.97,47.6c0-1.2-0.98-2.3-2.19-2.3C63.779,46.6,64.76,47.6,65.97,47.6L65.97,47.6z"/>
<path fill="#00B5CC" d="M65.97,43c0-1.301-0.98-2.4-2.19-2.4C63.779,41.899,64.76,43,65.97,43L65.97,43z"/>
<path fill="#00B5CC" d="M61.609,47.6c1.2,0,2.17-1,2.17-2.3C62.58,45.3,61.609,46.399,61.609,47.6L61.609,47.6z"/>
<path fill="#00B5CC" d="M59.43,45.3c0,1.3,0.97,2.3,2.18,2.3C61.609,46.399,60.63,45.3,59.43,45.3L59.43,45.3z"/>
<path fill="#00B5CC" d="M61.609,43c0,1.299,0.971,2.3,2.17,2.3C63.779,44,62.81,43,61.609,43L61.609,43z"/>
<path fill="#00B5CC" d="M61.609,43c1.2,0,2.17-1.101,2.17-2.4C62.58,40.6,61.609,41.699,61.609,43L61.609,43z"/>
<path fill="#00B5CC" d="M63.779,45.3c1.21,0,2.19-1.001,2.19-2.3C64.76,43,63.779,44,63.779,45.3L63.779,45.3z"/>
<path fill="#00B5CC" d="M61.609,43c-1.21,0-2.18,1-2.18,2.3C60.63,45.3,61.609,44.299,61.609,43L61.609,43z"/>
<path fill="#00B5CC" d="M57.25,38.299c0,1.301,0.97,2.301,2.18,2.301C59.43,39.3,58.449,38.299,57.25,38.299L57.25,38.299z"/>
<path fill="#00B5CC" d="M57.25,43c0,1.299,0.97,2.3,2.18,2.3C59.43,44,58.449,43,57.25,43L57.25,43z"/>
<polygon fill="#00B5CC" points="57.63,48.1 57.63,47.6 57.25,47.6 57.25,48.1 57.63,48.1 "/>
<path fill="#00B5CC" d="M57.25,47.6c1.199,0,2.18-1,2.18-2.3C58.22,45.3,57.25,46.399,57.25,47.6L57.25,47.6z"/>
<path fill="#00B5CC" d="M61.609,38.299c-1.21,0-2.18,1.001-2.18,2.301C60.63,40.6,61.609,39.6,61.609,38.299L61.609,38.299z"/>
<path fill="#00B5CC" d="M61.609,43c0-1.301-0.979-2.4-2.18-2.4C59.43,41.899,60.399,43,61.609,43L61.609,43z"/>
<path fill="#00B5CC" d="M73.47,30.199l-1.41,0.4l0.2-1.7l-1.21,1.3c-0.67,0.701-0.67,1.9-0.011,2.602h-1.43v1.5h1.44v-1.5
	c0.67,0.699,1.75,0.699,2.42,0l1.21-1.301l-1.61,0.199L73.47,30.199L73.47,30.199z"/>
<polygon fill="#00B5CC" points="60.05,35.899 60.5,35.5 60.96,35.899 60.96,35.199 61.6,35.199 61.149,34.8 61.6,34.301 
	60.96,34.301 60.96,33.6 60.5,34.1 60.05,33.6 60.05,34.301 59.41,34.301 59.869,34.8 59.41,35.199 60.05,35.199 60.05,35.899 "/>
<polygon fill="#00B5CC" points="61.6,31.899 62.05,32.4 61.6,32.899 62.24,32.899 62.24,33.6 62.689,33.1 63.14,33.6 63.14,32.899 
	63.779,32.899 63.33,32.4 63.779,31.899 63.14,31.899 63.14,31.199 62.689,31.699 62.24,31.199 62.24,31.899 61.6,31.899 "/>
<polygon fill="#00B5CC" points="60.05,33.6 60.5,33.1 60.96,33.6 60.96,32.899 61.6,32.899 61.149,32.4 61.6,31.899 60.96,31.899 
	60.96,31.199 60.5,31.699 60.05,31.199 60.05,31.899 59.41,31.899 59.869,32.4 59.41,32.899 60.05,32.899 60.05,33.6 "/>
<polygon fill="#00B5CC" points="63.14,33.6 62.689,34.1 62.24,33.6 62.24,34.301 61.6,34.301 62.05,34.8 61.6,35.199 62.24,35.199 
	62.24,35.899 62.689,35.5 63.14,35.899 63.14,35.199 63.779,35.199 63.33,34.8 63.779,34.301 63.14,34.301 63.14,33.6 "/>
<polygon fill="#00B5CC" points="92.869,28.899 91.72,31.1 94.84,28.899 92.869,28.899 "/>
<polygon fill="#00B5CC" points="97.25,28.899 95.279,28.899 94.14,31.1 97.25,28.899 "/>
<polygon fill="#00B5CC" points="90.06,34.399 88.92,36.5 92.029,34.399 90.06,34.399 "/>
<polygon fill="#00B5CC" points="91.47,31.6 90.319,33.799 93.43,31.6 91.47,31.6 "/>
<polygon fill="#00B5CC" points="94.5,39.799 93.359,42 96.47,39.799 94.5,39.799 "/>
<polygon fill="#00B5CC" points="98.71,31.6 97.56,33.799 100.68,31.6 98.71,31.6 "/>
<polygon fill="#00B5CC" points="88.66,37.1 87.52,39.3 90.63,37.1 88.66,37.1 "/>
<polygon fill="#00B5CC" points="95.899,37.1 94.76,39.3 97.869,37.1 95.899,37.1 "/>
<polygon fill="#00B5CC" points="97.31,47.199 95.02,43.1 93.979,42 93.359,42 92.52,42 97.31,47.199 "/>
<polygon fill="#00B5CC" points="97.31,34.399 96.16,36.5 99.27,34.399 97.31,34.399 "/>
<polygon fill="#00B5CC" points="99.67,28.899 97.689,28.899 96.55,31.1 99.67,28.899 "/>
<polygon fill="#00B5CC" points="91.08,37.1 89.93,39.3 93.05,37.1 91.08,37.1 "/>
<polygon fill="#00B5CC" points="88.529,42 91.64,39.799 89.67,39.799 88.529,42 "/>
<polygon fill="#00B5CC" points="93.489,37.1 92.35,39.3 95.46,37.1 93.489,37.1 "/>
<polygon fill="#00B5CC" points="91.33,36.5 94.449,34.399 92.479,34.399 91.33,36.5 "/>
<polygon fill="#00B5CC" points="93.75,36.5 96.859,34.399 94.89,34.399 93.75,36.5 "/>
<polygon fill="#00B5CC" points="96.289,31.6 95.149,33.799 98.26,31.6 96.289,31.6 "/>
<polygon fill="#00B5CC" points="92.739,33.799 95.85,31.6 93.88,31.6 92.739,33.799 "/>
<polygon fill="#00B5CC" points="91.39,53.5 94.619,57 96.08,57 89.63,50 91.39,53.5 "/>
<polygon fill="#00B5CC" points="87.869,46.5 97.529,57 98.99,57 86.119,42.9 87.869,46.5 "/>
<polygon fill="#00B5CC" points="87.26,39.799 86.119,42 89.229,39.799 87.26,39.799 "/>
<polygon fill="#00B5CC" points="84.869,39.6 86.109,39.6 86.109,38.299 84.869,38.299 84.869,39.6 "/>
<polygon fill="#00B5CC" points="92.09,39.799 90.949,42 94.06,39.799 92.09,39.799 "/>
<polygon fill="#00B5CC" points="86.699,42 100.439,57 101.899,57 88.149,42 86.699,42 "/>
<path fill="#00B5CC" d="M83.619,38.299h-0.58l0.891-0.998l0.9,0.998h0.01V36.9h1.279l-0.909-1.001L86.119,35H84.84v-1.4l-0.91,1
	l-0.9-1V35H81.75l0.91,0.899L81.75,36.9h1.279v1.398h-2.55V36.9h1.271l-0.9-1.001L81.75,35h-1.271v-1.4l-0.91,1l-0.899-1V35h-1.28
	l0,0l0.899,0.899L77.39,36.9l0,0h1.28v1.398h-1.28V47.6h0.88v0.5H77.83v0.5h-0.44v0.5h0.44v0.4h0.439v1H77.83v0.399h-0.44v0.5h0.44
	V51.9h0.439V52.8H77.83v0.499h-0.44v0.4h0.44v0.5h0.439v1H77.83v0.4h-0.44v0.5h0.44v0.5h0.439V57h0.43v-0.4h0.44v-0.5h0.87v0.5
	h0.439V57h0.431v-0.4h0.439v-0.5h0.87v0.5h0.43V57h0.44v-0.4h0.44v-0.5h0.869v0.5h0.44V57h0.43v-0.4h0.44v-0.5h0.43v-0.5h-0.43v-0.4
	h-0.44v-1h0.44v-0.5h0.43v-0.4h-0.43V52.8h-0.44V51.9h0.44v-0.501h0.43v-0.5h-0.43V50.5h-0.44v-1h0.44v-0.4h0.43v-0.5h-0.43v-0.5
	h-0.44v-0.5h0.87V41h-2.49V38.299L83.619,38.299z M79.569,37.301l0.9,0.998h-1.79L79.569,37.301L79.569,37.301z M80.449,55.199
	H80.01v0.4h-0.87v-0.4h-0.44v-1h0.44v-0.5h0.87v0.5h0.439V55.199L80.449,55.199z M80.449,52.8H80.01v0.499h-0.87V52.8h-0.44V51.9
	h0.44v-0.501h0.87V51.9h0.439V52.8L80.449,52.8z M80.449,50.5H80.01v0.399h-0.87V50.5h-0.44v-1h0.44v-0.4h0.87v0.4h0.439V50.5
	L80.449,50.5z M80.449,48.1H80.01v0.5h-0.87v-0.5h-0.44v-0.5h1.75V48.1L80.449,48.1z M82.619,55.199h-0.43v0.4h-0.87v-0.4H80.88v-1
	h0.439v-0.5h0.87v0.5h0.43V55.199L82.619,55.199z M82.619,52.8h-0.43v0.499h-0.87V52.8H80.88V51.9h0.439v-0.501h0.87V51.9h0.43V52.8
	L82.619,52.8z M82.619,50.5h-0.43v0.399h-0.87V50.5H80.88v-1h0.439v-0.4h0.87v0.4h0.43V50.5L82.619,50.5z M82.619,48.1h-0.43v0.5
	h-0.87v-0.5H80.88v-0.5h1.739V48.1L82.619,48.1z M84.81,55.199h-0.44v0.4H83.5v-0.4h-0.44v-1h0.44v-0.5h0.869v0.5h0.44V55.199
	L84.81,55.199z M84.81,52.8h-0.44v0.499H83.5V52.8h-0.44V51.9h0.44v-0.501h0.869V51.9h0.44V52.8L84.81,52.8z M84.81,50.5h-0.44
	v0.399H83.5V50.5h-0.44v-1h0.44v-0.4h0.869v0.4h0.44V50.5L84.81,50.5z M84.81,48.1h-0.44v0.5H83.5v-0.5h-0.44v-0.5h1.75V48.1
	L84.81,48.1z M84.869,42.3v4.001H78.64V39.6h3.74V41h-2.49v4h1.24v-2.7H84.869L84.869,42.3z"/>
<polygon fill="#00B5CC" points="83.619,43.6 82.38,43.6 82.38,45 83.619,45 83.619,43.6 "/>
<polygon fill="#00B5CC" points="91.06,42 90.949,42 89.609,42 101.899,55.399 99.609,51.3 91.06,42 "/>
<polygon fill="#00B5CC" points="98.97,31.1 102.08,28.899 100.109,28.899 98.97,31.1 "/>
<polygon fill="#00B5CC" points="86.109,21.399 86.109,20.801 85.56,20.801 86.109,21.399 "/>
<polygon fill="#00B5CC" points="77.39,20.899 77.39,21.3 77.85,20.899 77.39,20.899 "/>
<path fill="#00B5CC" d="M86.109,26.1l-1.26-1.301l-2.42,2.601l0.97,1l0.74-0.8h-1l0.74-0.7l0.729,0.7l-1.21,1.3h0.97l0.48-0.5
	l0.48,0.5h0.779v-0.2l-1.02-1.1l0.729-0.7l0.29,0.3V26.1L86.109,26.1z M84.85,26.899l-0.48-0.601l0.48-0.499l0.48,0.499
	L84.85,26.899L84.85,26.899z"/>
<path fill="#00B5CC" d="M84.14,20.801h-1l0.74-0.701l0.729,0.8l-1.21,1.3l1.44,1.5l-0.471,0.5l0.48,0.6l0.48-0.6l-0.48-0.5l1.26-1.3
	V22l-1.02-1.101l0.729-0.8l0.29,0.301V19.6H85.33l-0.48,0.5l-0.48-0.5H83.39l-0.96,1l0.97,1L84.14,20.801L84.14,20.801z
	 M85.33,22.199l-0.48,0.5l-0.48-0.5l0.48-0.6L85.33,22.199L85.33,22.199z"/>
<polygon fill="#00B5CC" points="86.109,23.4 85.59,24 86.109,24.5 86.109,23.4 "/>
<polygon fill="#00B5CC" points="86.109,28.199 86.109,27.6 85.56,27.6 86.109,28.199 "/>
<polygon fill="#00B5CC" points="82.42,28.899 81.699,28.199 80.979,28.899 82.42,28.899 "/>
<polygon fill="#00B5CC" points="81.699,28.199 82.18,27.6 81.699,27.1 81.21,27.6 81.699,28.199 "/>
<polygon fill="#00B5CC" points="81.699,21.399 82.18,20.899 81.699,20.299 81.21,20.899 81.699,21.399 "/>
<path fill="#00B5CC" d="M78.05,28.899l0.489-0.5l0.48,0.5h-0.01h0.97h0.01l-1.21-1.3l0.73-0.799l0.71,0.799h-0.97l0.739,0.8l0.971-1
	l-2.421-2.601L77.39,26v1l0.18-0.199L78.3,27.6l-0.91,1v0.3h0.68H78.05L78.05,28.899z M78.05,26.299l0.489-0.499l0.48,0.499
	l-0.48,0.502L78.05,26.299L78.05,26.299z"/>
<path fill="#00B5CC" d="M80.25,25l0.74-0.801H80l0.729-0.699l0.73,0.699l-1.21,1.4l1.449,1.5l1.45-1.5l-1.21-1.4l0.73-0.699
	l0.71,0.699h-0.97L83.149,25l0.97-1l-2.42-2.601L79.279,24L80.25,25L80.25,25z M82.18,25.6l-0.48,0.5l-0.489-0.5l0.489-0.6
	L82.18,25.6L82.18,25.6z M81.699,22.399l0.48,0.5l-0.48,0.601l-0.489-0.601L81.699,22.399L81.699,22.399z"/>
<path fill="#00B5CC" d="M78.56,23.699l1.46-1.5l-1.22-1.3l0.729-0.8l0.711,0.8H79.27l0.75,0.8l0.96-1.1l-0.97-1h-0.971l0,0
	l-0.479,0.5l-0.479-0.5l0,0h-0.69v0.699l0.2-0.199l0.729,0.8L77.39,21.9v0.6l1.149,1.199l-0.489,0.5l0.489,0.6l0.48-0.6
	L78.56,23.699L78.56,23.699z M78.08,22.199l0.479-0.5l0.479,0.5l-0.479,0.5L78.08,22.199L78.08,22.199z"/>
<polygon fill="#00B5CC" points="77.39,27.6 77.39,28.1 77.83,27.6 77.39,27.6 "/>
<polygon fill="#00B5CC" points="82.42,19.6 80.97,19.6 81.699,20.299 82.42,19.6 "/>
<polygon fill="#00B5CC" points="80.479,33.6 80.479,32.199 81.75,32.199 80.85,31.199 81.75,30.3 80.479,30.3 80.479,28.899 
	79.569,29.899 78.67,28.899 78.67,30.3 77.39,30.3 77.39,30.3 78.289,31.199 77.39,32.199 77.39,32.199 78.67,32.199 78.67,33.6 
	79.569,32.6 80.479,33.6 "/>
<polygon fill="#00B5CC" points="81.75,32.199 83.029,32.199 83.029,33.6 83.93,32.6 84.84,33.6 84.84,32.199 86.119,32.199 
	85.21,31.199 86.119,30.3 84.84,30.3 84.84,28.899 83.93,29.899 83.029,28.899 83.029,30.3 81.75,30.3 82.66,31.199 81.75,32.199 
	"/>
<polygon fill="#00B5CC" points="111.93,49.199 111.93,51.1 113.18,52.399 113.18,50.6 111.93,49.199 "/>
<polygon fill="#00B5CC" points="110.17,53.801 111.93,53.801 113.18,52.399 111.42,52.399 110.17,53.801 "/>
<polygon fill="#00B5CC" points="110.17,49.199 111.93,49.199 113.18,47.899 111.42,47.899 110.17,49.199 "/>
<polygon fill="#00B5CC" points="111.93,55.699 113.18,57 113.18,55.1 111.93,53.801 111.93,55.699 "/>
<polygon fill="#00B5CC" points="108.92,47.899 107.16,47.899 105.91,49.199 107.68,49.199 108.92,47.899 "/>
<polygon fill="#00B5CC" points="107.68,49.199 107.68,51.1 108.92,52.399 108.92,50.6 107.68,49.199 "/>
<polygon fill="#00B5CC" points="111.93,51.1 110.17,51.1 108.92,52.399 107.16,52.399 105.91,53.801 107.68,53.801 108.92,52.399 
	110.689,52.399 111.93,51.1 "/>
<polygon fill="#00B5CC" points="110.689,57 111.93,55.699 110.17,55.699 108.92,57 110.689,57 "/>
<polygon fill="#00B5CC" points="108.92,47.899 108.92,49.8 110.17,51.1 110.17,49.199 108.92,47.899 "/>
<polygon fill="#00B5CC" points="108.92,54.3 110.17,55.699 110.17,53.801 108.92,52.399 108.92,54.3 "/>
<polygon fill="#00B5CC" points="107.68,53.801 107.68,55.699 108.92,57 108.92,57 108.92,55.1 107.68,53.801 "/>
<polygon fill="#00B5CC" points="104.67,57 106.43,57 107.68,55.699 105.91,55.699 104.67,57 "/>
<polygon fill="#00B5CC" points="104.67,54.3 105.91,55.699 105.91,53.801 104.67,52.399 104.67,54.3 "/>
<polygon fill="#00B5CC" points="104.67,47.899 104.67,49.8 105.91,51.1 105.91,49.199 104.67,47.899 "/>
<polygon fill="#00B5CC" points="107.68,51.1 105.91,51.1 104.67,52.399 106.43,52.399 107.68,51.1 "/>
<polygon fill="#00B5CC" points="112.529,33.799 113.18,33.799 113.18,33.1 112.529,33.1 112.529,33.799 "/>
<polygon fill="#00B5CC" points="112.529,35.199 111.869,35.199 111.869,34.5 111.21,34.5 111.21,35.199 110.56,35.199 
	110.56,35.899 109.91,35.899 109.91,36.6 110.56,36.6 110.56,37.301 111.21,37.301 111.21,38 111.869,38 111.869,37.301 
	112.529,37.301 112.529,36.6 113.18,36.6 113.18,35.899 112.529,35.899 112.529,35.199 "/>
<polygon fill="#00B5CC" points="108.59,38 109.25,38 109.25,37.301 108.59,37.301 108.59,38 "/>
<polygon fill="#00B5CC" points="105.319,31.699 105.979,31.699 105.979,32.4 106.63,32.4 106.63,31.699 107.279,31.699 107.279,31 
	107.939,31 107.939,30.3 107.279,30.3 107.279,29.6 106.63,29.6 106.63,28.899 105.979,28.899 105.979,29.6 105.319,29.6 
	105.319,30.3 104.67,30.3 104.67,31 105.319,31 105.319,31.699 "/>
<polygon fill="#00B5CC" points="109.25,32.4 109.25,31.699 108.6,31.699 108.6,32.4 107.939,32.4 107.939,33.1 107.279,33.1 
	107.279,33.799 107.939,33.799 107.939,34.5 108.6,34.5 108.6,35.199 109.25,35.199 109.25,34.5 109.91,34.5 109.91,33.799 
	110.56,33.799 110.56,33.1 109.91,33.1 109.91,32.4 109.25,32.4 "/>
<polygon fill="#00B5CC" points="109.25,28.899 108.59,28.899 108.59,29.6 109.25,29.6 109.25,28.899 "/>
<polygon fill="#00B5CC" points="112.529,29.6 111.869,29.6 111.869,28.899 111.21,28.899 111.21,29.6 110.56,29.6 110.56,30.3 
	109.91,30.3 109.91,31 110.56,31 110.56,31.699 111.21,31.699 111.21,32.4 111.869,32.4 111.869,31.699 112.529,31.699 112.529,31 
	113.18,31 113.18,30.3 112.529,30.3 112.529,29.6 "/>
<polygon fill="#00B5CC" points="105.319,37.301 105.979,37.301 105.979,38 106.63,38 106.63,37.301 107.279,37.301 107.279,36.6 
	107.939,36.6 107.939,35.899 107.279,35.899 107.279,35.199 106.63,35.199 106.63,34.5 105.979,34.5 105.979,35.199 105.319,35.199 
	105.319,35.899 104.67,35.899 104.67,36.6 105.319,36.6 105.319,37.301 "/>
<polygon fill="#00B5CC" points="105.319,33.1 104.67,33.1 104.67,33.799 105.319,33.799 105.319,33.1 "/>
<polygon fill="#00B5CC" points="113.18,41 112.449,40.301 111.72,41 112.449,41.801 113.18,41 "/>
<polygon fill="#00B5CC" points="113.18,44.801 112.449,44.1 111.72,44.801 112.449,45.6 113.18,44.801 "/>
<polygon fill="#00B5CC" points="111.72,41 111.72,39.9 110.689,39.9 109.649,39.9 109.649,41 109.649,42.199 110.689,42.199 
	111.72,42.199 111.72,41 "/>
<polygon fill="#00B5CC" points="110.689,43.699 111.42,42.9 110.689,42.199 109.96,42.9 110.689,43.699 "/>
<polygon fill="#00B5CC" points="110.689,38.4 109.96,39.1 110.689,39.9 111.42,39.1 110.689,38.4 "/>
<polygon fill="#00B5CC" points="109.649,44.801 109.649,46 110.689,46 111.72,46 111.72,44.801 111.72,43.699 110.689,43.699 
	109.649,43.699 109.649,44.801 "/>
<polygon fill="#00B5CC" points="107.16,42.199 106.43,42.9 107.16,43.699 107.89,42.9 107.16,42.199 "/>
<polygon fill="#00B5CC" points="109.649,41 108.92,40.301 108.189,41 108.92,41.801 109.649,41 "/>
<polygon fill="#00B5CC" points="107.16,47.5 107.89,46.699 107.16,46 106.43,46.699 107.16,47.5 "/>
<polygon fill="#00B5CC" points="108.189,44.801 108.92,45.6 109.649,44.801 108.92,44.1 108.189,44.801 "/>
<polygon fill="#00B5CC" points="104.67,41 105.399,41.801 106.13,41 105.399,40.301 104.67,41 "/>
<polygon fill="#00B5CC" points="104.67,44.801 105.399,45.6 106.13,44.801 105.399,44.1 104.67,44.801 "/>
<polygon fill="#00B5CC" points="107.16,43.699 106.13,43.699 106.13,44.801 106.13,46 107.16,46 108.189,46 108.189,44.801 
	108.189,43.699 107.16,43.699 "/>
<polygon fill="#00B5CC" points="108.189,41 108.189,39.9 107.16,39.9 106.13,39.9 106.13,41 106.13,42.199 107.16,42.199 
	108.189,42.199 108.189,41 "/>
<polygon fill="#00B5CC" points="107.16,38.4 106.43,39.1 107.16,39.9 107.89,39.1 107.16,38.4 "/>
<polygon fill="#00B5CC" points="110.689,47.5 111.42,46.699 110.689,46 109.96,46.699 110.689,47.5 "/>
<path fill="#00B5CC" d="M106.34,23.699C106.1,24.3,105.949,25,105.91,25.8c0.68-0.101,1.33-0.2,1.939-0.499
	c0.27,0.599,0.62,1.299,1.07,1.799c0.46-0.5,0.81-1.2,1.069-1.799c0.61,0.299,1.261,0.398,1.94,0.499
	c-0.04-0.8-0.189-1.5-0.42-2.101c0.6-0.299,1.16-0.699,1.67-1.199l0,0l0,0c-0.51-0.5-1.07-0.801-1.67-1.101
	c0.23-0.7,0.38-1.399,0.42-2.099c-0.68,0-1.33,0.199-1.94,0.398c-0.26-0.6-0.609-1.199-1.069-1.8l0,0l0,0
	c-0.45,0.601-0.801,1.2-1.07,1.8c-0.609-0.199-1.26-0.398-1.939-0.398c0.039,0.699,0.189,1.398,0.43,2.099
	c-0.6,0.3-1.16,0.601-1.67,1.101C105.18,23,105.74,23.4,106.34,23.699L106.34,23.699z M108.06,22.1c-0.069-0.199-0.13-0.4-0.14-0.7
	c0.229,0.101,0.449,0.101,0.649,0.2c0.08-0.2,0.2-0.4,0.351-0.6c0.149,0.199,0.27,0.399,0.359,0.6c0.2-0.1,0.42-0.1,0.65-0.2
	c-0.02,0.3-0.07,0.501-0.15,0.7c0.2,0.1,0.391,0.3,0.561,0.4c-0.17,0.199-0.36,0.3-0.561,0.399c0.08,0.2,0.131,0.501,0.15,0.7
	c-0.23,0-0.45-0.1-0.65-0.199c-0.09,0.299-0.21,0.499-0.359,0.6c-0.15-0.101-0.271-0.301-0.351-0.6c-0.2,0.1-0.42,0.199-0.649,0.199
	c0.01-0.199,0.07-0.5,0.14-0.7c-0.19-0.1-0.38-0.2-0.55-0.399C107.68,22.399,107.869,22.199,108.06,22.1L108.06,22.1z"/>
<polygon fill="#00B5CC" points="53.41,52.301 52.89,51.799 52.359,52.301 52.89,52.899 53.41,52.301 "/>
<polygon fill="#00B5CC" points="53.41,55.1 52.89,54.5 52.359,55.1 52.89,55.699 53.41,55.1 "/>
<path fill="#00B5CC" d="M39.789,52.899c0.91,0,1.641-0.8,1.641-1.7C40.529,51.199,39.789,52,39.789,52.899L39.789,52.899z"/>
<path fill="#00B5CC" d="M39.789,52.899c-0.899,0-1.629,0.8-1.629,1.8C39.06,54.699,39.789,53.899,39.789,52.899L39.789,52.899z"/>
<path fill="#00B5CC" d="M38.069,57.6c-0.22-0.7-0.83-1.199-1.55-1.199c0,0.499,0.19,0.999,0.48,1.299
	C37.359,57.699,37.72,57.699,38.069,57.6L38.069,57.6z"/>
<path fill="#00B5CC" d="M42.3,56.199c0.229-0.1,0.45-0.199,0.66-0.399c-0.24-0.601-0.83-1.101-1.53-1.101
	C41.43,55.399,41.789,55.899,42.3,56.199L42.3,56.199z"/>
<path fill="#00B5CC" d="M40.92,56.899c-0.29-0.3-0.69-0.499-1.131-0.499c0,0.299,0.07,0.6,0.19,0.899
	C40.3,57.199,40.619,57.1,40.92,56.899L40.92,56.899z"/>
<path fill="#00B5CC" d="M38.26,57.6c0.439,0,0.87-0.1,1.29-0.2c0.149-0.3,0.239-0.599,0.239-0.999
	C39.09,56.4,38.489,56.899,38.26,57.6L38.26,57.6z"/>
<path fill="#00B5CC" d="M33.119,57.1c0.091-0.2,0.141-0.4,0.141-0.699c-0.38,0-0.721,0.199-1,0.4
	C32.539,56.899,32.83,57,33.119,57.1L33.119,57.1z"/>
<path fill="#00B5CC" d="M35.01,57.6c0.34,0,0.7,0,1.06,0.1c0.28-0.399,0.45-0.8,0.45-1.299C35.83,56.4,35.25,56.899,35.01,57.6
	L35.01,57.6z"/>
<path fill="#00B5CC" d="M34.76,57.5c-0.24-0.601-0.83-1.1-1.5-1.1c0,0.299,0.06,0.6,0.17,0.799C33.859,57.3,34.31,57.399,34.76,57.5
	L34.76,57.5z"/>
<polygon fill="#00B5CC" points="50.859,52.301 50.859,53.1 51.609,53.1 52.359,53.1 52.359,52.301 52.359,51.5 51.609,51.5 
	50.859,51.5 50.859,52.301 "/>
<polygon fill="#00B5CC" points="51.609,54.3 52.14,53.699 51.609,53.1 51.08,53.699 51.609,54.3 "/>
<polygon fill="#00B5CC" points="51.609,51.5 52.14,51 51.609,50.4 51.08,51 51.609,51.5 "/>
<polygon fill="#00B5CC" points="52.359,49.6 52.359,48.799 51.609,48.799 50.859,48.799 50.859,49.6 50.859,50.4 51.609,50.4 
	52.359,50.4 52.359,49.6 "/>
<path fill="#00B5CC" d="M39.789,52.899c0-0.899-0.729-1.7-1.629-1.7C38.16,52.1,38.89,52.899,39.789,52.899L39.789,52.899z"/>
<polygon fill="#00B5CC" points="50.859,55.1 50.859,55.899 51.609,55.899 52.359,55.899 52.359,55.1 52.359,54.3 51.609,54.3 
	50.859,54.3 50.859,55.1 "/>
<path fill="#00B5CC" d="M39.369,49.1c-0.189,0-0.359,0-0.529,0c0.27,0.201,0.6,0.3,0.949,0.3c0-0.099-0.01-0.2-0.02-0.3
	C39.64,49.1,39.5,49.1,39.369,49.1L39.369,49.1z"/>
<polygon fill="#00B5CC" points="35.979,28.899 34.239,28.899 34.239,30.799 35.979,30.799 35.979,28.899 "/>
<path fill="#00B5CC" d="M30.239,55.5c0.23,0.199,0.471,0.399,0.73,0.6c0.39-0.3,0.649-0.799,0.649-1.4
	C31.029,54.699,30.52,55,30.239,55.5L30.239,55.5z"/>
<path fill="#00B5CC" d="M37.8,48.699c-0.28-0.1-0.521-0.3-0.72-0.6c-0.34,0.3-0.561,0.801-0.561,1.3
	C37.039,49.399,37.5,49.1,37.8,48.699L37.8,48.699z"/>
<path fill="#00B5CC" d="M41.43,51.199c0-1-0.73-1.8-1.641-1.8C39.789,50.4,40.529,51.199,41.43,51.199L41.43,51.199z"/>
<path fill="#00B5CC" d="M39.789,49.399c-0.899,0-1.629,0.8-1.629,1.8C39.06,51.199,39.789,50.4,39.789,49.399L39.789,49.399z"/>
<path fill="#00B5CC" d="M39.819,49.1c-0.01,0.1-0.03,0.201-0.03,0.3c0.461,0,0.871-0.2,1.171-0.499C40.6,49,40.22,49.1,39.819,49.1
	L39.819,49.1z"/>
<path fill="#00B5CC" d="M28.039,52.199c0.2-0.299,0.311-0.699,0.311-1c-0.21,0-0.41,0-0.59,0.101
	C27.84,51.6,27.939,51.9,28.039,52.199L28.039,52.199z"/>
<path fill="#00B5CC" d="M28.699,53.6c0.16,0.3,0.34,0.6,0.521,0.8c0.46-0.3,0.771-0.8,0.771-1.5C29.46,52.899,29,53.199,28.699,53.6
	L28.699,53.6z"/>
<path fill="#00B5CC" d="M27.42,49.6c0.069,0.5,0.16,1,0.27,1.4c0.2,0.1,0.43,0.199,0.66,0.199C28.35,50.5,27.97,49.899,27.42,49.6
	L27.42,49.6z"/>
<path fill="#00B5CC" d="M27.38,49.301c0.569-0.301,0.97-0.901,0.97-1.701c-0.41,0-0.78,0.201-1.061,0.5
	C27.3,48.5,27.33,48.9,27.38,49.301L27.38,49.301z"/>
<polygon fill="#00B5CC" points="27.26,28.899 27.26,30.799 29.01,30.799 29.01,28.899 27.26,28.899 "/>
<path fill="#00B5CC" d="M44.289,54.6c0.121-0.1,0.24-0.2,0.351-0.4c-0.19-0.699-0.83-1.3-1.58-1.3
	C43.06,53.699,43.59,54.399,44.289,54.6L44.289,54.6z"/>
<polygon fill="#00B5CC" points="51.609,47.699 51.08,48.199 51.609,48.799 52.14,48.199 51.609,47.699 "/>
<polygon fill="#00B5CC" points="53.41,49.6 52.89,49 52.359,49.6 52.89,50.199 53.41,49.6 "/>
<polygon fill="#00B5CC" points="49.06,47.699 48.529,48.199 49.06,48.799 49.59,48.199 49.06,47.699 "/>
<polygon fill="#00B5CC" points="46.5,47.699 45.979,48.199 46.5,48.799 47.029,48.199 46.5,47.699 "/>
<polygon fill="#00B5CC" points="49.06,54.3 49.59,53.699 49.06,53.1 48.529,53.699 49.06,54.3 "/>
<polygon fill="#00B5CC" points="50.859,49.6 50.33,49 49.81,49.6 50.33,50.199 50.859,49.6 "/>
<polygon fill="#00B5CC" points="50.859,52.301 50.33,51.799 49.81,52.301 50.33,52.899 50.859,52.301 "/>
<polygon fill="#00B5CC" points="49.06,57 49.59,56.5 49.06,55.899 48.529,56.5 49.06,57 "/>
<polygon fill="#00B5CC" points="46.5,57 47.029,56.5 46.5,55.899 45.979,56.5 46.5,57 "/>
<polygon fill="#00B5CC" points="44.699,49.6 45.229,50.199 45.76,49.6 45.229,49 44.699,49.6 "/>
<polygon fill="#00B5CC" points="44.699,55.1 45.229,55.699 45.76,55.1 45.229,54.5 44.699,55.1 "/>
<polygon fill="#00B5CC" points="44.699,52.301 45.229,52.899 45.76,52.301 45.229,51.799 44.699,52.301 "/>
<polygon fill="#00B5CC" points="46.5,50.4 45.979,51 46.5,51.5 47.029,51 46.5,50.4 "/>
<polygon fill="#00B5CC" points="46.5,53.1 45.979,53.699 46.5,54.3 47.029,53.699 46.5,53.1 "/>
<polygon fill="#00B5CC" points="47.25,52.301 47.25,51.5 46.5,51.5 45.76,51.5 45.76,52.301 45.76,53.1 46.5,53.1 47.25,53.1 
	47.25,52.301 "/>
<polygon fill="#00B5CC" points="46.5,54.3 45.76,54.3 45.76,55.1 45.76,55.899 46.5,55.899 47.25,55.899 47.25,55.1 47.25,54.3 
	46.5,54.3 "/>
<polygon fill="#00B5CC" points="49.81,55.1 50.33,55.699 50.859,55.1 50.33,54.5 49.81,55.1 "/>
<polygon fill="#00B5CC" points="47.25,52.301 47.779,52.899 48.31,52.301 47.779,51.799 47.25,52.301 "/>
<polygon fill="#00B5CC" points="47.25,55.1 47.779,55.699 48.31,55.1 47.779,54.5 47.25,55.1 "/>
<polygon fill="#00B5CC" points="49.06,54.3 48.31,54.3 48.31,55.1 48.31,55.899 49.06,55.899 49.81,55.899 49.81,55.1 49.81,54.3 
	49.06,54.3 "/>
<polygon fill="#00B5CC" points="48.31,52.301 48.31,53.1 49.06,53.1 49.81,53.1 49.81,52.301 49.81,51.5 49.06,51.5 48.31,51.5 
	48.31,52.301 "/>
<polygon fill="#00B5CC" points="49.06,51.5 49.59,51 49.06,50.4 48.529,51 49.06,51.5 "/>
<polygon fill="#00B5CC" points="48.31,49.6 47.779,49 47.25,49.6 47.779,50.199 48.31,49.6 "/>
<polygon fill="#00B5CC" points="47.25,49.6 47.25,48.799 46.5,48.799 45.76,48.799 45.76,49.6 45.76,50.4 46.5,50.4 47.25,50.4 
	47.25,49.6 "/>
<polygon fill="#00B5CC" points="49.06,50.4 49.81,50.4 49.81,49.6 49.81,48.799 49.06,48.799 48.31,48.799 48.31,49.6 48.31,50.4 
	49.06,50.4 "/>
<path fill="#00B5CC" d="M36.52,52.899c-0.9,0-1.63,0.8-1.63,1.8C35.789,54.699,36.52,53.899,36.52,52.899L36.52,52.899z"/>
<path fill="#00B5CC" d="M38.16,54.699c0,1,0.729,1.701,1.629,1.701C39.789,55.5,39.06,54.699,38.16,54.699L38.16,54.699z"/>
<path fill="#00B5CC" d="M33.26,52.899c0,1,0.729,1.8,1.63,1.8C34.89,53.699,34.16,52.899,33.26,52.899L33.26,52.899z"/>
<path fill="#00B5CC" d="M36.52,52.899c0,1,0.74,1.8,1.641,1.8C38.16,53.699,37.43,52.899,36.52,52.899L36.52,52.899z"/>
<path fill="#00B5CC" d="M36.52,56.4c0.91,0,1.641-0.701,1.641-1.701C37.26,54.699,36.52,55.5,36.52,56.4L36.52,56.4z"/>
<polygon fill="#00B5CC" points="51.609,57 52.14,56.5 51.609,55.899 51.08,56.5 51.609,57 "/>
<path fill="#00B5CC" d="M33.26,56.4c0.9,0,1.63-0.701,1.63-1.701C33.989,54.699,33.26,55.5,33.26,56.4L33.26,56.4z"/>
<path fill="#00B5CC" d="M34.89,54.699c0,1,0.729,1.701,1.63,1.701C36.52,55.5,35.789,54.699,34.89,54.699L34.89,54.699z"/>
<path fill="#00B5CC" d="M29.99,49.399c-0.9,0-1.641,0.8-1.641,1.8C29.25,51.199,29.99,50.4,29.99,49.399L29.99,49.399z"/>
<path fill="#00B5CC" d="M31.619,54.699c0,1,0.73,1.701,1.641,1.701C33.26,55.5,32.52,54.699,31.619,54.699L31.619,54.699z"/>
<path fill="#00B5CC" d="M28.35,51.199c0,0.9,0.74,1.7,1.641,1.7C29.99,52,29.25,51.199,28.35,51.199L28.35,51.199z"/>
<path fill="#00B5CC" d="M31.619,51.199c0-1-0.729-1.8-1.629-1.8C29.99,50.4,30.72,51.199,31.619,51.199L31.619,51.199z"/>
<path fill="#00B5CC" d="M31.619,51.199c-0.899,0-1.629,0.801-1.629,1.7C30.89,52.899,31.619,52.1,31.619,51.199L31.619,51.199z"/>
<path fill="#00B5CC" d="M33.26,52.899c-0.91,0-1.641,0.8-1.641,1.8C32.52,54.699,33.26,53.899,33.26,52.899L33.26,52.899z"/>
<path fill="#00B5CC" d="M29.99,52.899c0,1,0.729,1.8,1.629,1.8C31.619,53.699,30.89,52.899,29.99,52.899L29.99,52.899z"/>
<polygon fill="#00B5CC" points="44.699,45 53.41,45 53.41,43.6 44.699,43.6 44.699,45 "/>
<path fill="#00B5CC" d="M41.689,48.6c0.29,0.5,0.8,0.8,1.37,0.8c0-0.499-0.21-1-0.54-1.3C42.26,48.3,41.99,48.5,41.689,48.6
	L41.689,48.6z"/>
<polygon fill="#00B5CC" points="44.699,47.6 53.41,47.6 53.41,46.301 44.699,46.301 44.699,47.6 "/>
<path fill="#00B5CC" d="M39.789,56.4c0.91,0,1.641-0.701,1.641-1.701C40.529,54.699,39.789,55.5,39.789,56.4L39.789,56.4z"/>
<path fill="#00B5CC" d="M44.06,46.301c-0.16,0.299-0.34,0.499-0.54,0.799c0.29,0.301,0.71,0.5,1.18,0.5
	C44.699,47.1,44.449,46.6,44.06,46.301L44.06,46.301z"/>
<path fill="#00B5CC" d="M52.539,29.801H51.67v-0.901H50.8v0.901h-0.87v0.998h-1.74v-0.998h-0.88v-0.901h-0.87v0.901h-0.87v0.998
	h-0.87v0.9h0.87v0.9h0.87v1.9h-0.87v1h-0.87v0.899h0.87v0.901h0.87v0.998h-1.74V39.6h8.711v-1.301h-1.74v-0.998h0.869v-0.901h0.871
	V35.5h-0.871v-1H51.67v-1.9h0.869v-0.9h0.871v-0.9h-0.871V29.801L52.539,29.801z M50.8,38.299h-3.49v-0.998h0.88v-0.901h1.74v0.901
	h0.87V38.299L50.8,38.299z M50.8,34.5h-0.87v1h-1.74v-1h-0.88v-1.9h0.88v-0.9h1.74v0.9h0.87V34.5L50.8,34.5z"/>
<path fill="#00B5CC" d="M31.619,47.6c-0.899,0-1.629,0.8-1.629,1.8C30.89,49.399,31.619,48.6,31.619,47.6L31.619,47.6z"/>
<polygon fill="#00B5CC" points="44.699,42.3 53.41,42.3 53.41,41 44.699,41 44.699,42.3 "/>
<path fill="#00B5CC" d="M43.06,49.399c0.91,0,1.64-0.8,1.64-1.8C43.789,47.6,43.06,48.399,43.06,49.399L43.06,49.399z"/>
<path fill="#00B5CC" d="M41.43,51.199c0,0.9,0.73,1.7,1.63,1.7C43.06,52,42.33,51.199,41.43,51.199L41.43,51.199z"/>
<path fill="#00B5CC" d="M41.43,54.699c0.9,0,1.63-0.8,1.63-1.8C42.16,52.899,41.43,53.699,41.43,54.699L41.43,54.699z"/>
<path fill="#00B5CC" d="M41.43,51.199c0.9,0,1.63-0.799,1.63-1.8C42.16,49.399,41.43,50.199,41.43,51.199L41.43,51.199z"/>
<path fill="#00B5CC" d="M39.789,52.899c0,1,0.74,1.8,1.641,1.8C41.43,53.699,40.699,52.899,39.789,52.899L39.789,52.899z"/>
<path fill="#00B5CC" d="M43.06,52.899c0.91,0,1.64-0.8,1.64-1.7C43.789,51.199,43.06,52,43.06,52.899L43.06,52.899z"/>
<path fill="#00B5CC" d="M44.699,51.199c0-1-0.729-1.8-1.64-1.8C43.06,50.4,43.789,51.199,44.699,51.199L44.699,51.199z"/>
<path fill="#00B5CC" d="M38.16,51.199c0-1-0.73-1.8-1.641-1.8C36.52,50.4,37.26,51.199,38.16,51.199L38.16,51.199z"/>
<path fill="#00B5CC" d="M31.619,51.199c0,0.9,0.73,1.7,1.641,1.7C33.26,52,32.52,51.199,31.619,51.199L31.619,51.199z"/>
<path fill="#00B5CC" d="M33.26,52.899c0.9,0,1.63-0.8,1.63-1.7C33.989,51.199,33.26,52,33.26,52.899L33.26,52.899z"/>
<path fill="#00B5CC" d="M33.26,49.399c0,1.001,0.729,1.8,1.63,1.8C34.89,50.199,34.16,49.399,33.26,49.399L33.26,49.399z"/>
<path fill="#00B5CC" d="M34.89,51.199c0,0.9,0.729,1.7,1.63,1.7C36.52,52,35.789,51.199,34.89,51.199L34.89,51.199z"/>
<path fill="#00B5CC" d="M33.26,49.399c-0.91,0-1.641,0.8-1.641,1.8C32.52,51.199,33.26,50.4,33.26,49.399L33.26,49.399z"/>
<path fill="#00B5CC" d="M31.619,47.6c0,1,0.73,1.8,1.641,1.8C33.26,48.399,32.52,47.6,31.619,47.6L31.619,47.6z"/>
<path fill="#00B5CC" d="M28.35,47.6c0,1,0.74,1.8,1.641,1.8C29.99,48.399,29.25,47.6,28.35,47.6L28.35,47.6z"/>
<path fill="#00B5CC" d="M36.52,49.399c0-1-0.73-1.8-1.63-1.8C34.89,48.6,35.619,49.399,36.52,49.399L36.52,49.399z"/>
<path fill="#00B5CC" d="M33.26,49.399c0.9,0,1.63-0.8,1.63-1.8C33.989,47.6,33.26,48.399,33.26,49.399L33.26,49.399z"/>
<polygon fill="#00B5CC" points="29.75,45 33.489,45 33.489,41 29.75,41 29.75,45 "/>
<path fill="#00B5CC" d="M34.89,47.6h1.09v-11.2h-1.74v1.899h-1.75v-1.899h1.75V34.5h1.74v-1.9h-1.74v-1.801h-1.75v-1.899H30.75
	v1.899h-1.74V32.6h-1.75v1.9h1.75v1.899h1.74v1.899h-1.74v-1.899h-1.75v11.2h1.09h3.27H34.89L34.89,47.6z M30.75,32.6h1.739v1.9
	H30.75V32.6L30.75,32.6z M28.51,39.6h6.229v6.701H28.51V39.6L28.51,39.6z"/>
<path fill="#00B5CC" d="M34.89,51.199c0.899,0,1.63-0.799,1.63-1.8C35.619,49.399,34.89,50.199,34.89,51.199L34.89,51.199z"/>
<path fill="#00B5CC" d="M36.52,52.899c0.91,0,1.641-0.8,1.641-1.7C37.26,51.199,36.52,52,36.52,52.899L36.52,52.899z"/>
<path fill="#00B5CC" d="M32.67,23.699C32.43,24.3,32.279,25,32.24,25.8c0.68-0.101,1.329-0.2,1.939-0.499
	c0.26,0.599,0.62,1.299,1.07,1.799c0.46-0.5,0.81-1.2,1.069-1.799c0.61,0.299,1.261,0.398,1.94,0.499c-0.04-0.8-0.19-1.5-0.43-2.101
	C38.43,23.4,39,23,39.51,22.5c-0.51-0.5-1.08-0.801-1.68-1.101c0.239-0.7,0.39-1.399,0.43-2.099c-0.68,0-1.33,0.199-1.94,0.398
	c-0.26-0.6-0.609-1.199-1.069-1.8l0,0l0,0l0,0c-0.45,0.601-0.811,1.2-1.07,1.8c-0.61-0.199-1.26-0.398-1.939-0.398
	c0.039,0.699,0.189,1.398,0.43,2.099c-0.601,0.3-1.17,0.601-1.681,1.101l0,0l0,0C31.5,23,32.069,23.4,32.67,23.699L32.67,23.699z
	 M34.39,22.1c-0.08-0.199-0.13-0.4-0.14-0.7c0.22,0.101,0.439,0.101,0.64,0.2c0.09-0.2,0.21-0.4,0.36-0.6l0,0
	c0.149,0.199,0.27,0.399,0.359,0.6c0.2-0.1,0.42-0.1,0.641-0.2c-0.011,0.3-0.061,0.501-0.141,0.7c0.2,0.1,0.391,0.3,0.561,0.4
	c-0.17,0.199-0.36,0.3-0.561,0.399c0.08,0.2,0.13,0.501,0.141,0.7c-0.221,0-0.44-0.1-0.641-0.199c-0.09,0.299-0.21,0.499-0.359,0.6
	c-0.15-0.101-0.271-0.301-0.36-0.6c-0.2,0.1-0.42,0.199-0.64,0.199c0.01-0.199,0.06-0.5,0.14-0.7c-0.2-0.1-0.39-0.2-0.56-0.399
	C34,22.399,34.189,22.199,34.39,22.1L34.39,22.1z"/>
<path fill="#00B5CC" d="M42.85,23.699C42.609,24.3,42.46,25,42.42,25.8c0.68-0.101,1.33-0.2,1.939-0.499
	c0.26,0.599,0.62,1.299,1.07,1.799c0.45-0.5,0.81-1.2,1.07-1.799c0.609,0.299,1.26,0.398,1.939,0.499
	c-0.04-0.8-0.189-1.5-0.43-2.101c0.6-0.299,1.17-0.699,1.68-1.199c-0.51-0.5-1.08-0.801-1.68-1.101c0.24-0.7,0.39-1.399,0.43-2.099
	c-0.68,0-1.33,0.199-1.939,0.398c-0.261-0.6-0.61-1.199-1.07-1.8l0,0l0,0l0,0c-0.46,0.601-0.811,1.2-1.07,1.8
	c-0.609-0.199-1.26-0.398-1.939-0.398c0.04,0.699,0.189,1.398,0.43,2.099c-0.6,0.3-1.17,0.601-1.68,1.101l0,0l0,0
	C41.68,23,42.25,23.4,42.85,23.699L42.85,23.699z M44.569,22.1c-0.08-0.199-0.13-0.4-0.14-0.7c0.22,0.101,0.439,0.101,0.64,0.2
	c0.091-0.2,0.21-0.4,0.36-0.6l0,0c0.15,0.199,0.27,0.399,0.359,0.6c0.2-0.1,0.41-0.1,0.641-0.2c-0.01,0.3-0.061,0.501-0.141,0.7
	c0.201,0.1,0.391,0.3,0.561,0.4c-0.17,0.199-0.359,0.3-0.561,0.399c0.08,0.2,0.131,0.501,0.141,0.7c-0.23,0-0.44-0.1-0.641-0.199
	c-0.09,0.299-0.209,0.499-0.359,0.6c-0.15-0.101-0.27-0.301-0.36-0.6c-0.2,0.1-0.42,0.199-0.64,0.199c0.01-0.199,0.06-0.5,0.14-0.7
	c-0.2-0.1-0.39-0.2-0.56-0.399C44.18,22.399,44.369,22.199,44.569,22.1L44.569,22.1z"/>
</svg>
