<?xml version="1.0" encoding="utf-8"?>
<!-- Generator: Adobe Illustrator 15.0.0, SVG Export Plug-In . SVG Version: 6.00 Build 0)  -->
<!DOCTYPE svg PUBLIC "-//W3C//DTD SVG 1.1//EN" "http://www.w3.org/Graphics/SVG/1.1/DTD/svg11.dtd">
<svg version="1.1" id="Layer_1" xmlns="http://www.w3.org/2000/svg" xmlns:xlink="http://www.w3.org/1999/xlink" x="0px" y="0px"
	 width="29.188px" height="29.188px" viewBox="0 0 29.188 29.188" enable-background="new 0 0 29.188 29.188" xml:space="preserve">
<path fill="#717073" d="M21.892,21.295h-3.227v-4.711c0-1.233-0.504-2.074-1.613-2.074c-0.849,0-1.32,0.567-1.541,1.115
	c-0.082,0.196-0.069,0.47-0.069,0.744v4.926h-3.196c0,0,0.041-8.345,0-9.104h3.196v1.429c0.189-0.625,1.209-1.516,2.84-1.516
	c2.021,0,3.609,1.309,3.609,4.128V21.295z M9.014,11.053h-0.02c-1.03,0-1.697-0.696-1.697-1.578c0-0.898,0.687-1.578,1.737-1.578
	s1.695,0.678,1.716,1.576C10.75,10.354,10.084,11.053,9.014,11.053 M10.51,21.295H7.665v-9.104h2.845V21.295z M14.594,0
	C6.534,0,0,6.534,0,14.594c0,8.061,6.534,14.595,14.594,14.595c8.061,0,14.594-6.534,14.594-14.595C29.188,6.534,22.655,0,14.594,0"
	/>
</svg>
