<?xml version="1.0" encoding="utf-8"?>
<!-- Generator: Adobe Illustrator 15.0.0, SVG Export Plug-In . SVG Version: 6.00 Build 0)  -->
<!DOCTYPE svg PUBLIC "-//W3C//DTD SVG 1.1//EN" "http://www.w3.org/Graphics/SVG/1.1/DTD/svg11.dtd">
<svg version="1.1" id="Layer_1" xmlns="http://www.w3.org/2000/svg" xmlns:xlink="http://www.w3.org/1999/xlink" x="0px" y="0px"
	 width="30.476px" height="30.476px" viewBox="0 0 30.476 30.476" enable-background="new 0 0 30.476 30.476" xml:space="preserve">
<path fill="#717073" d="M21.32,12.126c0.006,0.133,0.009,0.271,0.009,0.404c0,4.14-3.149,8.911-8.911,8.911
	c-1.767,0-3.414-0.52-4.8-1.407c0.245,0.029,0.494,0.044,0.748,0.044c1.466,0,2.817-0.501,3.889-1.341
	c-1.371-0.024-2.527-0.93-2.926-2.176c0.191,0.039,0.387,0.057,0.589,0.057c0.287,0,0.564-0.037,0.826-0.11
	c-1.434-0.286-2.513-1.552-2.513-3.069v-0.039c0.423,0.232,0.906,0.375,1.419,0.391c-0.84-0.561-1.393-1.521-1.393-2.606
	c0-0.573,0.155-1.111,0.424-1.575c1.545,1.895,3.852,3.141,6.455,3.271c-0.054-0.228-0.08-0.466-0.08-0.713
	c0-1.728,1.402-3.132,3.129-3.132c0.902,0,1.716,0.382,2.287,0.989c0.713-0.141,1.383-0.399,1.988-0.758
	c-0.232,0.731-0.73,1.345-1.377,1.732c0.633-0.076,1.237-0.244,1.799-0.493C22.464,11.132,21.931,11.684,21.32,12.126 M15.238,0
	C6.822,0,0,6.823,0,15.238c0,8.416,6.822,15.237,15.238,15.237s15.238-6.821,15.238-15.237C30.476,6.823,23.654,0,15.238,0"/>
</svg>
