<?xml version="1.0" encoding="utf-8"?>
<!-- Generator: Adobe Illustrator 15.0.0, SVG Export Plug-In . SVG Version: 6.00 Build 0)  -->
<!DOCTYPE svg PUBLIC "-//W3C//DTD SVG 1.1//EN" "http://www.w3.org/Graphics/SVG/1.1/DTD/svg11.dtd">
<svg version="1.1" id="Layer_1" xmlns="http://www.w3.org/2000/svg" xmlns:xlink="http://www.w3.org/1999/xlink" x="0px" y="0px"
	 width="29.189px" height="29.188px" viewBox="0 0 29.189 29.188" enable-background="new 0 0 29.189 29.188" xml:space="preserve">
<polygon fill="#717073" points="12.649,17.408 17.427,14.602 12.649,11.795 "/>
<path fill="#717073" d="M21.891,17.204c0,2.515-2.515,2.515-2.515,2.515H9.811c-2.514,0-2.514-2.515-2.514-2.515v-5.219
	c0-2.515,2.514-2.515,2.514-2.515h9.565c2.515,0,2.515,2.515,2.515,2.515V17.204z M14.594,0C6.533,0,0,6.534,0,14.594
	c0,8.061,6.533,14.595,14.594,14.595c8.061,0,14.595-6.534,14.595-14.595C29.189,6.534,22.655,0,14.594,0"/>
</svg>
